<?xml version="1.0" encoding="utf-8"?>
<!-- Generator: Adobe Illustrator 22.0.1, SVG Export Plug-In . SVG Version: 6.00 Build 0)  -->
<svg version="1.1" id="Layer_1" xmlns="http://www.w3.org/2000/svg" xmlns:xlink="http://www.w3.org/1999/xlink" x="0px" y="0px"
	 viewBox="0 0 47.3 39.2" style="enable-background:new 0 0 47.3 39.2;" xml:space="preserve">
<style type="text/css">
	.st0{fill:#E56369;}
	.st1{fill:none;stroke:#555A5E;stroke-width:0.51;stroke-miterlimit:10;}
</style>
<g>
	<path class="st0" d="M9.2,21.6c-1.6,0-2.8,0.1-4.1,1.2c-1.5,1.3-2.3,3-2.7,4.9c-0.3,1.5,0.1,2.7,0.8,3.9c1.7,2.9,6.1,4.5,9.3,3.4
		c1.7-0.6,4.8-1.7,5.5-3.5c0.3-0.7,0.1-1.6,0.1-2.4c0-1,0-1.7-0.4-2.6c-0.6-1.3-2.1-2.6-3.4-3.3C12.4,22.2,10.3,21.9,9.2,21.6z"/>
	<path class="st0" d="M35.5,22.9c-0.6-0.1-1-0.3-1.7-0.3c-2,0-3.9,0.5-5.5,1.8c-1.7,1.4-2.8,3.2-3.2,5.4c-0.2,0.9-0.2,1.5,0.3,2.3
		c0.7,1,1.8,1.8,2.8,2.5c2.4,1.6,5.7,2,8.4,0.9c1.7-0.7,3.5-1.8,4.1-3.6c0.5-1.5,0.7-2.8,0.7-4.4c0-1.3-1.3-2.9-2.3-3.7
		C37.6,22.6,35.5,22.7,35.5,22.9z"/>
	<path class="st1" d="M11.8,25.5c0.1-0.8,0.4-1.8,0.6-2.6c1.3-4.7,4.4-9.2,8.3-12.2C26.5,6.2,33.7,3.9,41,3.2
		c-0.8,0.4-1.7,0.7-2.5,1c-3.3,1.3-5.4,4.6-6.7,7.8c-0.9,2.2-1.2,4.7-1.4,7.1c-0.1,1.6-0.2,3.3,0,4.8c0.1,1.2,0.8,2.9,2.3,2.8"/>
	<path class="st1" d="M41.1,3.5c-0.1,0-0.1,0-0.2,0c0.4,0,0.6,0.2,0.9,0.3c0.5,0.2,2.1,0.9,2.6,0.4c0.1-0.2,0.1-0.5,0.1-0.7
		c-0.1-0.3-0.3-0.4-0.6-0.3c-1.1-0.3-2.5,0.1-3.5,0.3"/>
</g>
</svg>
