<?xml version="1.0" encoding="utf-8"?>
<!-- Generator: Adobe Illustrator 22.0.1, SVG Export Plug-In . SVG Version: 6.00 Build 0)  -->
<svg version="1.1" id="Layer_1" xmlns="http://www.w3.org/2000/svg" xmlns:xlink="http://www.w3.org/1999/xlink" x="0px" y="0px"
	 viewBox="0 100 336 138" style="enable-background:new 0 0 336 338;" xml:space="preserve">
<style type="text/css">
	.st0{fill:#1EA3C2;}
	.st1{fill:none;stroke:#555A5E;stroke-width:1.2582;stroke-linecap:round;stroke-linejoin:round;stroke-miterlimit:10;}
	.st2{clip-path:url(#SVGID_2_);}
	.st3{clip-path:url(#SVGID_4_);fill:#14769D;}
</style>
<g>
	<path class="st0" d="M112.7,174.1l0.9-5.4c0.4-2.6-2-5.2-5.3-5.8l-66.2-10.6c-3.3-0.5-6.4,1.2-6.8,3.8l-4.6,28.7
		c-0.4,2.6,2,5.2,5.3,5.8l66.2,10.6c3.3,0.5,6.4-1.2,6.8-3.8l0.9-5.4c5.1-0.3,9.4-3.3,10.1-7.6C120.6,180.2,117.5,176,112.7,174.1z
		 M110.9,186.5c-2.4-0.4-4-2.2-3.7-4.1c0.3-1.9,2.5-3.1,4.8-2.7c2.4,0.4,4,2.2,3.7,4.1C115.5,185.6,113.3,186.8,110.9,186.5z"/>
	<path class="st1" d="M285,130c-3.2-1.9-6.6-3.2-9.7-5.1c-3.1-1.9-6.1-1.9-9.6-0.8c-20.5,6.9-41,13.5-61.5,20.4
		c-4,1.3-6.8,0.9-10.4-1.4c-8.1-5.4-17-8-26.8-5c0,0.1,0.1,0.1,0.2,0.2c-1,0.4-2,0.7-3.1,1.1c-2.7,0.9-5.3,1.7-8,2.6
		c0-0.1,0-0.2,0-0.2c-3.6,1.1-6.6,3.1-9.2,5.7c-14.5,14.7-15,31.9-5.8,48.7c7,12.8,24.9,20.8,38.9,17.1c7-1.9,13.9-3.8,19.3-9.2
		c4.8-4.8,8.5-10.1,10.4-16.6c0.8-2.6,2.2-4.1,4.8-4.8c2.7-0.7,5.4-1.8,8.1-2.6c2-0.6,3.4-1.8,4.4-3.8c1.5-3,3.1-6,4.5-9
		c0.9-1.8,2-2.3,3.7-1.3c2.1,1.2,4.4,1.8,6.7,2.8c1.7,0.8,3,0.3,3.9-1.4c1.1-1.9,2.1-3.9,3-5.9c0.9-1.8,2-2.2,3.8-1.3
		c1.9,1,4,1.9,5.9,3c2.3,1.2,3.7,0.6,4.8-1.6c0.8-1.8,1.9-3.5,2.7-5.3c1-2.2,2.2-2.8,4.4-1.5c2.1,1.2,4.3,2.3,6.5,3.2
		c1.6,0.7,2.9,0.4,3.7-1.1c3.7-6.8,7-13.8,9.6-21.1c-0.1-0.4-0.3-0.8-0.4-1.2C288.6,132.4,286.9,131.1,285,130z M160.7,189.7
		c-5.2,1.7-10.9-1.1-12.5-6.3c-1.6-5.1,1.1-10.7,6.1-12.5c5-1.7,11,1.2,12.7,6.2C168.7,182.2,165.8,188,160.7,189.7z"/>
	<g>
		<defs>
			<path id="SVGID_1_" d="M69.3,175.3c-1.5-0.2-2.6-3.5-7.2-4.2c-2.8-0.4-5.3,1.7-5.6,4.2c-0.4,2.7,1.4,5.2,4.2,5.6
				c4.6,0.7,6.6-2.1,8.1-1.9c0.6,0.1,0.9,0.1,1.1,1.1c0.6,4.2,2.9,7.6,4.8,7.9c0.9,0.1,3.4-5.8,3.9-9.4c0.5-3.6-0.1-10-1-10.2
				c-1.8-0.3-5.1,2.4-6.9,6.2C70.2,175.4,69.9,175.4,69.3,175.3z"/>
		</defs>
		<use xlink:href="#SVGID_1_"  style="overflow:visible;fill-rule:evenodd;clip-rule:evenodd;fill:#14769D;"/>
		<clipPath id="SVGID_2_">
			<use xlink:href="#SVGID_1_"  style="overflow:visible;"/>
		</clipPath>
		<g class="st2">
			<defs>

					<rect id="SVGID_3_" x="-423.6" y="-47.9" transform="matrix(0.1479 -0.989 0.989 0.1479 -37.9333 112.3527)" width="939.6" height="252.1"/>
			</defs>
			<use xlink:href="#SVGID_3_"  style="overflow:visible;fill:#14769D;"/>
			<clipPath id="SVGID_4_">
				<use xlink:href="#SVGID_3_"  style="overflow:visible;"/>
			</clipPath>

				<rect x="54.5" y="162.6" transform="matrix(0.1479 -0.989 0.989 0.1479 -117.423 217.4564)" class="st3" width="26" height="28.5"/>
		</g>
	</g>
	<path class="st0" d="M113.7,176.5C113.7,176.5,113.7,176.5,113.7,176.5c-0.4,0.6-1,1.3-1.1,2.1c0,0.4,0.1,0.7,0.2,1.1
		c0.6,0.1,1.2,0.6,1.6,1c0.4,0.4,0.9,0.7,1.1,1.2c0.1,0.2,0.1,0.6,0.3,0.7c0,0.1,0.5,0.3,0.5,0.3c0.4,0.1,0.7-0.5,0.9-0.7
		c0.4-0.5,0.7-1,0.9-1.6c0.2-0.6,0.1-1.2,0.1-1.8c0-0.7,0-1-0.4-1.5c-0.4-0.4-0.6-0.7-1.1-0.9c-0.2-0.1-0.4-0.2-0.7-0.3
		C115.7,176,115.2,175.7,113.7,176.5z"/>
	<path class="st1" d="M113.7,181.6c-0.7-0.2-1.6,1-2.1,1.4c-0.9,0.7-1.3,1.3-1.7,2.4c-0.4,1.2-0.6,2.5-0.2,3.7
		c0.9,3.2,3.5,4.8,6.2,6.4c2.7,1.7,5.7,2.7,8.9,2.8c1.4,0,2.8,0.1,4.3,0.2c1.5,0.2,2.5-0.1,3.9-0.5c1.7-0.5,3.6-0.7,5.4-1
		c1.8-0.3,3.6-0.9,5.4-1.4c1.6-0.5,3.2-0.8,4.7-1.5c1.4-0.6,2.7-1.2,4.1-1.9c1.6-0.8,3.2-1.6,4.4-2.9c0.9-1,1.7-2.1,2.2-3.2
		c0.4-0.8,0.3-1.4,0.3-2.3c0-0.8,0-1.4-0.5-2.1c-0.3-0.3-0.5-0.6-0.8-1c-0.3-0.5-0.4-1-0.9-1.4c-0.3-0.2-0.6-0.5-0.9-0.6
		c-0.5-0.3-1.1-0.2-1.6-0.4c-0.7-0.2-1.4-0.2-2.2-0.3c-0.9-0.2-1.6-0.2-2.5-0.2c-0.4,0-0.7,0-1.1,0c-0.4,0.1-0.3,0.4-0.8,0.3"/>
	<path class="st1" d="M118.7,178.5c1-0.9,2.2-0.9,3.4-1.2c1.9-0.6,3.7-1,5.6-1.2c1.5-0.2,3.2,0,4.8,0"/>
	<path class="st1" d="M114.9,182.3c-0.5,0.2-1.1,0.6-1.5,1c-0.7,0.7-1.6,1.2-1.7,2.3c-0.1,0.9,0.1,1.7,0.5,2.5
		c0.5,0.9,1,1.3,1.7,2.1c0.7,0.7,1.6,1.4,2.4,1.9c1.1,0.6,2.5,0.9,3.6,1.3c2.4,0.9,5.1,1.2,7.6,1.2c0.7,0,1.6-0.1,2.3,0
		c0.7,0.1,1.3,0.3,2.1,0.3c1.9,0,3.7-0.1,5.6-0.4c3-0.5,5.8-1.6,8.8-2.4c0.8-0.2,1.4-0.5,2.2-1c0.6-0.4,1.2-0.5,1.9-0.8
		c0.5-0.3,0.8-0.7,1.4-1c0.5-0.3,1-0.5,1.5-0.8c1.3-0.7,2.5-1.7,2.5-3.4c0-1.5,0.1-2.9-1.5-3.5c-0.4-0.2-0.5-0.2-1-0.2
		c-0.5,0-0.9-0.3-1.4-0.3c-0.9-0.1-1.8,0-2.7,0"/>
	<path class="st1" d="M120,180.4c0.2-0.8,1-0.7,1.6-0.8c1.9-0.4,4-1.4,6-1.4c1.1,0,2.3,0,3.4,0c0.6,0,1.6-0.2,2.2,0.1
		c0,0.2-0.1,0.3-0.3,0.2"/>
</g>
</svg>
