<?xml version="1.0" encoding="utf-8"?>
<!-- Generator: Adobe Illustrator 22.0.1, SVG Export Plug-In . SVG Version: 6.00 Build 0)  -->
<svg version="1.1" id="Layer_1" xmlns="http://www.w3.org/2000/svg" xmlns:xlink="http://www.w3.org/1999/xlink" x="0px" y="0px"
	 viewBox="0 0 268.3 222.3" style="enable-background:new 0 0 268.3 222.3;" xml:space="preserve">
<style type="text/css">
	.st0{fill:#3CC4E8;}
	.st1{fill:#1EA3C2;}
	.st2{fill:#555A5E;}
	.st3{fill:none;stroke:#555A5E;stroke-width:2.9471;stroke-linecap:round;stroke-linejoin:round;stroke-miterlimit:10;}
</style>
<g>
	<path class="st0" d="M240.1,28.8h-3.3c0.3-1.1,0.4-1.8,0.1-1.6c-0.7,0.4-1.5,0.2-2.3,0.2c-1,0-2,0-3,0c-3.7,0-7.4,0-11,0
		c-7.5,0-15.1,0-22.6,0c-7.5,0-15,0-22.5,0c-7.1,0-14.3,0.3-21.5-0.1c-7-0.4-14.3-1.8-21.2,0.5c0.7,1.6,1.7,3,2.6,4.4
		c0.5,2.6,1.1,5.1,1.3,7.9c1.7,16,5.4,31.7,8.1,47.5c0.9,5,2,9.8,3.4,14.7c1,3.4,0.9,6.6,1.3,10.1c0.4,3,1.4,5.7,2.3,8.6
		c0.3,1.1,0.5,1.7,0.6,2.8c0.1,1.4,0,1.2,1.1,2.1c0.4,0.3,0.7,0.6,1.1,0.8c4.8,7.1,17.9,12.2,33.3,12.2c19.5,0,35.2-8.1,35.2-18.1
		c0-0.8-0.1-1.6-0.3-2.3c0.3-1,0.5-2,0.8-3c2.4-9.1,3.2-18.5,4.1-27.7c0.4-4.2,0.8-8.3,1.4-12.4c0.6-3.8,1.7-7.4,2.3-11.3
		c1.2-6.7,3.5-13,4.8-19.7c0.6-3,1-6.3,2-9.2C239,33.2,240.5,30.6,240.1,28.8z"/>
	<ellipse class="st1" cx="186.4" cy="26.4" rx="53.7" ry="10.3"/>
	<ellipse class="st2" cx="186" cy="29.4" rx="40.7" ry="7.3"/>
	<path class="st0" d="M229.1,44.2c-0.2,0-0.4,0.1-0.6,0.1c-0.4,1.2-0.2,2.8-0.6,4.1c-0.4,1.7-1.7,3.7-1,5.4c1.4,0.1,2.5-1.1,3.6-1.8
		c1.8-1,3.8-1.8,5.8-2c5-0.4,8.9,2.7,11.8,6.6c1.8,2.4,1.6,5.9,2,8.8c0.4,3.6,0.9,7.8,0.3,11.3c-1.3,7.6-7.2,15.2-14.3,18.3
		c-3.8,1.6-8.8,2.7-13,2.2c-2.2-0.3-3.8-1.8-4.4,1.4c-0.2,1.1-0.4,4.3,0.3,5.2c0.7,0.9,3.8,1.5,4.8,1.5c2.2,0,5.2-0.6,7.4-1
		c6.3-1.1,13-4.4,18-8.3c2.1-1.7,4-4,5.9-5.9c1.9-1.9,4.1-4.3,5-6.8c0.8-2.2,1.3-4.6,2.2-6.8c1-2.5,2-5.1,2-7.9c0.1-1.9,0.3-4.2,0-6
		c-0.4-3-2.5-5.1-4.1-7.4c-1.9-2.8-2.8-6-5.5-8.2c-2.1-1.6-4.3-2.8-6.8-3.8c-2.9-1.2-5.8-2-8.9-2c-2.2,0-5.8,0.7-7.8-0.1
		C231.4,41,231.4,40.7,229.1,44.2z"/>
</g>
<g>
	<path class="st3" d="M58.3,71.7c-3.8,0.9-7.6,1.8-11.4,2.6C35.7,77,22.1,78.6,13.7,87.5c-4.9,5.2-6.5,12-5,18.9
		c1,4.7,3.1,8.7,6.2,12.4c7.5,9.1,17.1,16.3,25.4,24.6c6.7,6.8,13.1,14,19.9,20.8c6.4,6.3,12.7,12.8,18.9,19.3
		c5.5,5.6,11.1,13.3,18.5,16.4c3.3,1.4,5.8,0.9,8.9-0.6c3.1-1.5,6-3.2,9.1-4.7c6.1-2.9,12.6-5.2,18.6-8.2c5.2-2.7,9.5-6.6,14.8-9
		c2.9-1.3,5.9-2.5,8.6-4.1c1.2-0.7,2.6-1.5,3.6-2.2c0.7-0.5,1.2-0.5,1.4-1.5c0.2-1.1-0.7-3.9-1-5c-0.7-2.2-2.4-3.9-3.8-5.6
		c-3.2-4.1-6.8-7.7-10.3-11.6c-7.9-8.8-16.7-16.6-24.9-25.2c-6.6-6.9-14.5-13.1-20.5-20.5c-2.2-2.7-4.8-5.1-7.1-7.7
		c-1.8-2.1-3.2-4.6-5-6.8c-2.8-3.3-5.5-6.5-8.6-9.5c-3.2-3.1-7.2-5.2-11.7-5.6c-0.9-0.1-1.8-0.3-2.9-0.3c-1.4,0-2.7,0.4-4.1,0.5
		C58.6,72.6,54.4,71.8,58.3,71.7z"/>
	<path class="st3" d="M71.1,74.4C66,75.6,60.8,76.8,55.6,78c-9,2.1-17.5,5.7-26.6,7.7c-2.7,0.6-5.8,1.8-7.9,3.4
		c-1.3,1-3.2,1.5-4.2,3.1c-1.1,1.6-0.7,4.1-0.2,5.9c0.9,3.1,3.7,6,5.5,8.6c4.2,6.2,9.3,11.3,14.4,16.7c6.1,6.5,11.8,13.1,18.5,19
		c6,5.1,11.3,11,16.1,17.3c5,6.7,10.3,13.3,15.9,19.4c2.2,2.4,3.7,5.5,6.5,7.2c1.2,0.7,0.9,0.8,2.5,0.5c2-0.4,3.5-1.6,5.1-2.9
		c7.6-5.8,16.4-10.3,25.2-14c3.5-1.5,7.1-2.7,10.5-4.4c3-1.5,6.1-2.1,9.1-3.4c0.5-0.2,2.9-1.1,2.9-2c0.1-0.9-0.4-0.7-1.2-1.2
		c-1-0.6-1.8-0.9-2.7-1.8c-2.8-2.7-5.3-5.5-8.2-8.1c-5.3-4.8-10.8-9.1-15.2-14.8c-4-5.2-7.8-10.5-11.9-15.6
		c-4-4.9-8.5-9.3-12.4-14.3c-1.9-2.4-4.5-4.2-6.6-6.5c-2.3-2.4-4.5-4.5-6.4-7.1c-3-4.1-7.1-7.5-9.8-11.8
		C73.8,77.6,71.6,72.7,71.1,74.4z"/>
	<path class="st3" d="M128.6,168.4c-3.9,0.9-7.9,1.3-9.8,5.5c-4.1,8.5,6.9,7.9,12.3,6.8c2.4-0.5,4.7-0.8,4.8-3.7
		c0.1-2.5-1.6-3.4-3.7-4.1c-2.2-0.7-14.2-1.9-12.3,3.7"/>
	<path class="st3" d="M9.9,103.8c1,3.9,2.2,6.9,4.5,10.3c4.2,5.9,8.8,11.2,13.2,16.9c3,3.9,5.5,8,8.9,11.7
		c4.6,5.1,9.5,9.6,14.4,14.4c2.7,2.6,4.5,6,7.6,8.2c3.6,2.7,6.6,7.5,9.2,11.2c2.7,3.7,6.3,6.5,9.2,10.1c2.6,3.3,6.1,5.4,8.8,8.5
		c2.2,2.6,4.7,5.3,7.6,7.2c3.5,2.4,6.7,3.4,10.7,3.5c1.5,0,2.8-0.6,4.2-0.9c2.4-0.4,4.3,0,6.6-0.9c2.9-1,5.8-2.1,8.6-3.2
		c3-1.2,5.4-2.9,8.2-4.4c5.9-3.1,11.4-6.6,17.2-9.9c2.5-1.4,4.8-3,7.4-4.3c1.1-0.6,1.9-1.4,2.9-2c0.9-0.6,2.1-1.1,2.9-1.8
		c0.9-0.8,2-2.7,2.1-3.9"/>
</g>
</svg>
