<?xml version="1.0" encoding="utf-8"?>
<!-- Generator: Adobe Illustrator 22.0.1, SVG Export Plug-In . SVG Version: 6.00 Build 0)  -->
<svg version="1.1" id="Layer_1" xmlns="http://www.w3.org/2000/svg" xmlns:xlink="http://www.w3.org/1999/xlink" x="0px" y="0px"
	 viewBox="0 0 209 163" style="enable-background:new 0 0 209 163;" xml:space="preserve">
<style type="text/css">
	.st0{fill:#C4C9CA;}
	.st1{fill:#F3F3F3;}
	.st2{fill:#8DD5EA;}
	.st3{fill:#F89F28;}
	.st4{fill:#D85D5D;}
	.st5{fill:#A6D06F;}
	.st6{fill:#60AF59;}
	.st7{fill:none;stroke:#555A5E;stroke-miterlimit:10;}
	.st8{fill:none;stroke:#555A5E;stroke-miterlimit:10;stroke-dasharray:4.0219,4.0219;}
	.st9{fill:#1EA3C2;}
	.st10{fill:none;stroke:#8DD5EA;stroke-linecap:round;stroke-linejoin:round;stroke-miterlimit:10;}
	.st11{fill:none;stroke:#F89F28;stroke-linecap:round;stroke-linejoin:round;stroke-miterlimit:10;}
	.st12{fill:none;stroke:#FFFFFF;stroke-miterlimit:10;}
	.st13{fill:#FCBA6B;}
	.st14{fill:#60AF59;stroke:#60AF59;stroke-linecap:round;stroke-linejoin:round;stroke-miterlimit:10;}
	.st15{fill:#A6D06F;stroke:#A6D06F;stroke-width:0.737;stroke-linecap:round;stroke-linejoin:round;stroke-miterlimit:10;}
	.st16{fill:#3CC4E8;}
	.st17{fill:none;stroke:#555A5E;stroke-width:0.3738;stroke-linecap:round;stroke-linejoin:round;stroke-miterlimit:10;}
	.st18{fill:none;stroke:#555A5E;stroke-width:0.3581;stroke-linecap:round;stroke-linejoin:round;stroke-miterlimit:10;}
	.st19{opacity:0.2;fill:#3CC4E8;}
</style>
<g>
	<g>
		<path class="st0" d="M107.3,89.1c0-5.8,0.2-11.6,0.7-17.3c0.3-4,1.1-8.2,0.6-12.2c-0.1-0.8-0.3-1.5-0.3-2.3
			c-0.3,0.7-1.1,0.6-1.7,0.7c-4.7,0.9-9.3,2.2-14,3.1c-4.4,0.8-8.7,1.5-13.1,2.2c-2.9,0.5-5.8,0.8-8.7,1.6c-2.1,0.6-4,1.3-6.1,1.7
			c-0.6,0.1-1.1,0.1-1.7,0.3c-0.5,0.2-1,0.5-1.4,0.7c-0.5,0.2-0.9,0.3-1.4,0.5c-0.3,0.1-1.2,0.3-1.3,0.5c-0.3,0.4-0.2,1.1-0.2,1.6
			c0,2.6,0,5.2,0,7.8c0,3.6-0.1,7.2,0.2,10.8c0.2,2.5,0,4.9,0.2,7.3c0.1,1.3,0.5,2.4,0.7,3.7c0.1,0.6-0.1,1.2,0.1,1.8
			c0.1,0.4,0.4,0.9,0.5,1.3c0.1,0.6,0.1,1.1,0.1,1.7"/>
		<path class="st1" d="M106.4,89.7c1.1-0.1,2.1,0.5,3,1.1c1.6,1.1,3.1,2.1,4.7,3.1c2.2,1.3,4.6,2.3,6.9,3.4c1.7,0.8,3.2,1.6,4.7,2.8
			c0.3,0.2,0.7,0.4,0.9,0.6c-0.4,0.4-1,0.5-1.5,0.7c-2.6,1.1-5,2.5-7.6,3.5c-8.7,3.6-17.6,6.6-26.3,10.5c-1.2,0.5-2.4,1.1-3.6,1.7
			c-1,0.6-1.9,1.4-2.8,2.2c-0.5,0.4-1,0.8-1.5,1.2c-0.5,0.4-0.7,0.6-1.2,0.2c-0.5-0.3-1-0.9-1.4-1.2c-1.7-1.5-3.3-2.8-5.2-4.1
			c-3.5-2.5-6.8-5.2-10.3-7.5c-1.3-0.9-2.7-1.9-4-2.6c-0.5-0.3-1.4-0.6-1.5-1.3"/>
		<path class="st2" d="M103.4,86.1c0.9,0.3,0.6-0.9,0.6-1.4c0.1-3.3,0.7-6.5,0.7-9.8c0-3.3-0.4-6.8,0.1-10.1
			c0.1-0.8,0.2-2.3,0.8-2.8c-0.7,0-1.1,0.2-1.8,0.4c-3.3,1.1-6.8,1.6-10.2,2.2c-5.1,0.9-10.2,1.6-15.2,2.8c-1.9,0.4-3.5,1.4-5.4,1.6
			c-2.6,0.3-5.3,0.5-7.7,1.3c-0.8,0.2-2.8,0-2.7,1.1c0,0.4,0.3,0.8,0.3,1.2c0.2,1.6,0.3,3.4,0.3,5c0.2,4.4,0.8,8.7,1.5,13.1
			c0.3,1.9,0.7,3.9,0.7,5.8c0,0.4-0.1,1.1,0,1.5c0.1,0.3,0.4,0.6,0.3,1c0-0.2,0-0.4,0-0.5"/>
	</g>
	<g>
		<path class="st3" d="M105.9,110.7c-0.1,0.5,0.1,0.7,0.5,0.6c0.9-1.8-1.3-3.3-2.5-4.1c-1.5-1.1-6.2-4.9-8-3.7
			c0.2,1.3,2.3,1.8,2.5,3.1c-2.4,0.9-15-6.2-15.9-2.6c-0.3,1.1,2,1.6,2.6,2c0.9,0.6,1.6,1.3,2.4,2c-1.8-0.1-5.5-0.4-2.9,2
			c1.5,1.4,3.3,2.9,4.9,4.1c0.8,0.6,1.6,1.1,2.5,1.5c0.8,0.4,1.7,1.3,2.5,1.5c0.6,0.2,1,0,1.5,0.1c0.4,0.1,0.8,0.5,1.1,0.5
			c1,0.3,2.1,0.3,3.1,0c0-0.2,0.1-0.4,0.1-0.6"/>
		<path class="st4" d="M170.1,51.8c-0.2-0.2-0.4-0.3-0.5-0.5c-0.3-0.4-0.4-0.9-0.6-1.3c-0.1-0.1-0.2-0.3-0.4-0.4c0-0.1,0-0.1,0-0.2
			c-0.2-1.7-2-2.7-3.2-3.7c-1.2-1.1-2.5-1.8-3.9-2.5c-1.3-0.7-2.4-1.1-4.1-1c-1.3,0.1-2.7,0.9-3.9,1.4c-2,0.8-3.3,3.1-5.5,3
			c-1.1,0-2.2-0.4-3.1-0.8c-1.1-0.6-2.2-1.6-3.6-1.2c-2.6,0.6-5.6,5.3-4.3,7.7c0.4,0.8,1.5,1.4,2.2,1.9c0.6,0.5,1.1,0.9,1.8,1.1
			c0.7,0.2,1.8,0,2.3,0.6l10.3,9.3c1.5,1.3,3.2,2.5,5.2,3c0.9,0.2,2,0,3-0.3c1.3-0.3,2.1-1.2,2.8-2.3c0,0.2,0,0.6,0,0.7
			c0,0.3,0.2,0.6,0.3,0.9c0.1,0.3,0.2,1,0.4,1.2c0.4,0.3,1.3-0.2,1.7-0.3c1-0.3,1.5-0.6,2.1-1.5c0.5-0.8,0.9-1.7,1.3-2.6
			c0.3-0.7,0.4-1.6,0.6-2.4c0.1-0.5,0.3-1,0.3-1.4c0.1-0.4,0.2-0.9,0.3-1.3c0-0.3-0.1-0.5-0.2-0.8c-0.1-0.4,0-0.8,0-1.2
			c0-1.4-0.6-2.7-1-4C170.3,52.3,170.3,52,170.1,51.8z"/>
		<path class="st3" d="M142.4,55.7c-0.1-0.2-0.2-0.4-0.2-0.6c0.5,0.9,0,2.5-0.1,3.5c-0.1,1.2-0.1,2.3-0.4,3.4
			c-0.3,1.6-1.1,3-1.6,4.5c-0.2,0.7-0.8,1.5-0.8,2.3c0,1.1,1.5,0.5,2.3,0.4c0.6-0.1,1.5-0.3,2.1-0.1c0.3,0.1,0.7,0.6,0.9,0.9
			c0,0.1,0.1,0.4,0.1,0.5c0.2,0.5,0.6,1,0.9,1.5c0.2,0.4,0.1,0.7,0.2,1.2c0.1,0.5,0.3,1,0.3,1.5c0.1,1.3,0.2,2.8,0.7,4
			c0.9,2.2,3.5,1.9,5.3,1.5c1.9-0.5,4.2-1,5.5-2.5c1.2-1.4,2.8-2.3,3.8-4.1c0.7-1.4,1.3-2.9,2-4.2c0.5-1,1.1-1.9,1.2-3
			c0-0.7,0.4-2.3-0.5-2.6c-0.9-0.3-3,1.2-3.7,0.7c0.6-0.9,1.3-2,1.2-3.1c-0.1-1.2-1.7-2.7-2.8-3.2c-0.9-0.4-1.6,0.1-2.2,0.7
			c-0.4,0.4-0.9,1.5-1.4,1.7c-0.6,0.3-0.8-0.5-1.1-1c-0.2-0.3-0.5-0.7-0.8-1c-0.4-0.5-1.1-0.8-1.4-1.3c-0.4-0.6,0-0.9,0.4-1.4
			c0.5-0.6,0.8-0.7,1.3-1.1c0.4-0.3,1-1,1.2-1.4c0.2-0.4,0.4-0.3,0.2-0.7c-0.1-0.2-0.6-0.5-0.8-0.5c-0.6-0.2-1.4,0.2-1.9,0.3
			c-1.5,0.4-2.8,0.8-4.2,1.3c-1.3,0.4-2.5,0.9-3.7,1.4C144,55.4,143.1,55.5,142.4,55.7z"/>
		<line class="st5" x1="151.2" y1="72.9" x2="163.1" y2="72.9"/>
		<line class="st3" x1="149.5" y1="75.7" x2="155.4" y2="81.6"/>
		<path class="st3" d="M152.9,76.1c-0.4-0.2-0.7-0.2-0.6,0.4c0.1,0.3,0.3,0.5,0.4,0.8c0.3,0.6,0.4,1.2,0.5,1.9
			c0.1,0.7,0.2,1.2,0.2,1.9c0,0.5-0.2,1,0.5,1c1,0,1.9-0.4,2.9-0.4c0.7,0,1.2-0.1,1.9-0.3c0.4-0.1,0.9-0.2,1.3-0.4
			c0.4-0.1,0.5-0.4,0.8-0.6c0.3-0.3,0.6-0.4,0.9-0.7c0.2-0.2,0.4-0.3,0.5-0.4c0.2-0.2,0.3-0.6,0.6-0.8c0.4-0.3,0.7-0.7,1.1-1.1
			c0.1-0.1,0.2-0.2,0.4-0.3c0.2-0.2,0.5-0.4,0.7-0.6c0.2-0.2,0.3-0.4,0.5-0.6c0.1-0.1,0.2-0.2,0.3-0.3c0.5-0.4,0.9-0.8,1.4-1.2
			c0.3-0.2,0.5-0.5,0.9-0.7c0.4-0.2,0.8-0.4,0.5-1c-0.2-0.5-0.7-0.9-1-1.3c-0.2-0.3-0.4-0.7-0.6-1.1c-0.2-0.2-0.4-0.3-0.6-0.5
			c-0.4-0.4-0.4-0.9-0.7-1.3c-0.1-0.2-0.2-0.5-0.3-0.7c-0.2-0.3-0.4-0.2-0.7-0.5"/>
		<path class="st6" d="M185.2,92.2c0-3.3-0.2-6.1-1.5-9.1c-1.4-3.2-3.5-6.2-6.1-8.3c-0.8-0.6-2.3-2.1-3.4-2.4
			c-1.7-0.4-4,0.1-5.7,0.1c-2.1,0-3.9-0.1-5.8,0.6c-4.2,1.4-8.6,3.3-11.9,6.8c-1.7,1.8-2.8,3.7-4.3,5.6c-1.3,1.7-2.6,3.5-3.7,5.3
			c-0.6,1-0.9,1.9-1.4,2.9c-0.8,1.7-2.2,2.7-3.1,4.2c-1.2,1.9-2.1,4.1-3.3,6c-1,1.5-2.2,2.8-3.2,4.3c-0.4,0.5-0.8,1.7-1.3,2.1
			c-0.4,0.4-1.1,0.6-1.6,1c-0.3,0.3-0.6,0.8-1,1.1c-0.8,0.8-0.9,0.5-1.8,0.9c-1.3,0.6-2,0.8-3.5,0.8c-1.6,0-2.5,0.6-4,0.9
			c0.3,0.4,0.6,0.6,1.1,0.6"/>
		<path class="st6" d="M179.9,80.4c1.7-0.2,2.7,0.9,3.6,2c3.8,5.1,6.3,10.4,8.4,16.4c0.9,2.7,2.3,5.2,3.1,7.9c0.6,2.3,1,4.7,1.4,7
			c0.9,4.1,0.9,8.3,0.8,12.5c-0.1,3.5-3.6,4.8-6.7,4.8c-1.3,0-2.7,0-4,0c-1.7,0-2.5-0.2-4-0.7c-1.4-0.5-1.5-0.2-2.2-1.8
			c-0.4-1-1-2.1-1.2-3.1c-0.2-0.9,0.5-3.3,1.2-3.9c0.5-0.5,0.8-0.3,1.5-0.5c0.9-0.1,1.8-0.5,2.7-0.6c1.6-0.2,3.5,1.5,4.9,0.2
			c1.1-1.1,0.5-4.5,0.1-5.8c-1.5-5.6-5.1-10.4-6.2-16.1c-0.2-0.8,0-1.5-0.2-2.3c-0.1-0.4-0.4-0.6-0.5-1c-0.1-0.5,0.1-1.3,0-1.7
			c-0.2-0.7-1-1-1.4-1.6c-0.5-0.6-0.4-1.1-0.8-1.7c-1-1.7-3.2-3.5-4.6-4.8c-1.6-1.5-3.5-2.7-4.5-4.6c-0.3-0.6-0.3-1.2-0.7-1.8
			C170.8,79.2,171,79.1,179.9,80.4z"/>
		<path class="st6" d="M180.9,86.4c0.2,0,0.4,0.1,0.5,0.1c0.2,1.3,0.7,2.5,1,3.8c1.3,7.3,0.5,15.3,0.5,22.7c0.1,5.5-0.8,11-2.5,16.2
			c-0.9,2.8-2.4,5-3,7.8c-1.3,5.7-4.9,9.9-8.9,13.9c-0.9,1-2.5,1.8-3.7,2.6c-0.7,0.4-1.3,0.4-2,1c-0.8,0.6-1.3,1.3-2.2,1.8
			c-1.1,0.6-2.5,0.8-3.6,1.4c-1.7,0.9-3.5,2-5.4,2.6c-6.2,1.8-12.3-0.8-18-3c-4.6-1.8-9-4-12-8.2c-0.9-1.3-1.3-3.4-0.8-5
			c0.6-1.8,3.8-3.2,5.3-4.1c2.2-1.2,4.3-3.7,6-5.6c2.1-2.3,3.5-4.4,4.5-7.4c0.8-2.5,1.9-5.2,2.2-7.8c0.3-2.6,0-5.5,0-8.2
			c0-2.1,0-4.2,0-6.3c0-2.6,0.1-3.8,2-5.7c2.3-2.3,5.4-3.9,8.2-5.4c1.1-0.6,2.1-1.4,3.1-2.1c2-1.3,4.1-1.8,6.3-2.6
			c2.4-0.9,4-2.1,5.8-3.8"/>
		<path class="st6" d="M177.2,73.7c1.2,0.4,2.7,1.4,3.7,2.3c3.4,3.1,6.3,6.4,8.6,10.4c1.2,2,2.4,4.1,3.3,6.3c1,2.5,1.3,5.2,2.5,7.6
			c2,3.7,3.6,7.2,4.4,11.4c0.9,4.9,1.4,10.6,0.8,15.6c-0.3,2.9-3.1,6.6-6.2,7.1c-2.4,0.4-5.9,0.2-8.3-0.2c-1.2-0.2-2.3-0.4-3.6-0.5
			c-0.8-0.1-2.1-0.2-2.7-0.7c-0.8-0.6-1.4-1.8-1.3-3c0.1-1.1,1-3.5,1.7-4.4c1.5-1.8,6.3-0.1,8.4-0.6c1.3-0.3,2.8-1.3,3.7-2.4
			c1.4-1.7,1-3.8,1-5.9c0-3-0.2-5-2-7.6c-1.9-2.8-3.7-5.6-5.7-8.3c-0.9-1.2-2.1-2.1-3.1-3.2c-1.7-1.9-3.4-4.4-4.7-6.7
			c-1.9-3.3-3-7.2-6-9.8C170.9,80.4,169.5,79.9,177.2,73.7z"/>
		<path class="st6" d="M148.6,108c-0.2,0-0.4,0.1-0.5,0.1c-0.2,1.8-1.9,3.3-2.9,4.6c-1.8,2.4-3.7,4.5-5.9,6.5c-3.5,3-7,5.6-11.3,7.3
			c-4,1.6-8.8,2.4-13,0.8c-1.6-0.6-2.9-1.7-4.4-2.4c-2-1-4-1.9-6-3c-1.8-1-6-1.6-6.6-3.6c-1.1-3.4,2.1-6.1,4.7-7.7
			c1.6-1,2.7-1.5,4.7-1.4c2,0.2,3.1,1.4,4.6,2.7c1.9,1.6,4.4,2.5,6.7,3.5c1.4,0.6,2.5,1.2,4,1.1c1.4,0,2.1-0.1,3.3-0.6
			c1.6-0.8,2.9-1.8,4.5-2.5c2.2-0.9,2.5-2.6,4.1-4c1.1-0.9,3-0.4,3.4-2.1"/>
		<path class="st6" d="M135.6,108.7c0.6,0.4,0.3,1.9,0.4,2.5c0,1.7-0.3,2.8-1.6,4c-1.1,1-2.3,2.1-3.5,3c-2.3,1.8-5.7,3.4-8.7,2.1
			c-1.9-0.8-4.1-1.9-5.6-3.2c-1.5-1.3,0.1-2.1,1.4-2.2c1.3-0.1,2.1-0.9,3.4-1.2c1.3-0.3,2.5,0.1,3.7-0.4c1.6-0.7,3.5-0.9,5.1-1.9
			c0.5-0.3,1-0.7,1.5-1c0.4-0.2,0.9-0.3,1.3-0.6c0.4-0.3,0.5-1,0.9-1.3C134.6,107.7,135.6,107.7,135.6,108.7z"/>
	</g>
	<g>
		<g>
			<g>
				<path class="st7" d="M47,21.9c-0.2-0.4-0.4,0.2-0.5,0.3c-0.1,0.3-0.3,0.6-0.3,0.9c0,0.1,0,0.2,0,0.2"/>
				<path class="st8" d="M47.9,26.9c0.1,0.1,0.2,0.2,0.4,0.4c0.6,0.6,1.2,1.2,1.9,1.6c1.2,0.8,2.7,1.4,4.1,1.7c0.9,0.2,2,0.3,2.9,0
					c0.4-0.1,0.7-0.3,1-0.4c0.4-0.1,0.8,0,1.2,0.1c0.4,0.1,0.9,0.2,1.3,0.5c0.5,0.3,0.9,0.8,1.3,1.2c0.5,0.5,1,1,1.4,1.5
					c0.5,0.6,0.9,1.5,1.1,2.2c0.3,1.3,0.2,2.7-0.1,4c-0.2,0.6-0.4,1.2-0.7,1.8c-0.4,0.7-1,1.3-1.5,2c-0.3,0.5-0.7,1.1-0.9,1.7
					c-0.3,0.7-0.4,1.4-0.4,2.2c0,0.7,0.1,1.5,0.2,2.2c0.2,1,0.4,2.1,0.8,3c0.3,0.7,0.7,1.4,1.2,2c0.4,0.5,0.9,0.8,1.5,1.1
					c0.7,0.3,1.3,0.6,2.1,0.8c0.5,0.1,1.1,0.2,1.6,0.3c0.9,0.2,1.8,0.4,2.7,0.6c1.4,0.2,2.7,0,4.1,0c1.2,0,2.3,0.1,3.5,0.4
					c1.1,0.3,2.1,0.8,3.2,1.2c1.1,0.4,2.1,1,3,1.7c0.3,0.3,0.6,0.6,0.9,0.9c0.5,0.5,1,1.1,1.4,1.7c0.5,0.7,0.8,1.4,1,2.3
					c0.5,2,0.4,4.1-0.3,6.1c-0.3,0.8-0.7,1.6-1.2,2.4"/>
				<path class="st7" d="M85.7,75.6c-0.1,0.4-0.1,0.8-0.2,1.2c0,0.3-0.1,0.5-0.1,0.8"/>
			</g>
		</g>
		<circle class="st9" cx="84.7" cy="81" r="1.6"/>
		<circle class="st2" cx="67.8" cy="57.1" r="1.6"/>
		<circle class="st3" cx="61.3" cy="44.5" r="1.6"/>
		<path class="st2" d="M95.9,38.5c0,0.3,0,0.5,0,0.7c-0.3,1.7-0.9,3.4-1.5,5c-0.8,2.2-1.6,4.4-2.2,6.6c-0.2,1-0.4,2-0.8,2.9
			c-0.3-0.1-0.6-0.3-1-0.4c-1.2-0.4-2.5-0.7-3.7-1.1c-2.5-0.8-5.1-1.3-7.8-1.5c-0.7,0-1.3,0-2,0c-0.1,0-0.4,0.1-0.5,0
			c-0.1-0.1-0.1-0.8,0-0.9c0.1-0.9,0.5-1.9,0.8-2.8c1.1-3.2,2.3-6.4,2.7-9.8c0.1-0.7,0.4-1.1,0.5-1.8c0.1-0.4-0.1-0.9,0-1.2
			c0.3-0.5,1.1-0.4,1.6-0.4c1,0.1,2,0.4,3,0.5c2,0.2,4,0.8,5.9,1.5c1.1,0.4,2.3,0.6,3.4,0.9C94.7,36.7,95.2,37.2,95.9,38.5z"/>
		<path class="st10" d="M75.7,48.8c-0.5-0.1-0.9,0.1-1.3,0.3c-0.8,0.5-1.7,1.2-2.2,1.9c-0.4,0.6-0.9,1.2-1.2,1.9
			c-0.2,0.5-0.5,1-0.8,1.4c-0.1,0-0.1,0-0.2,0"/>
		<path class="st10" d="M72.4,53.3c-0.3,0.2-0.7,0.3-1,0.5c-0.4,0.2-0.7,0.6-1.2,0.6c-0.7-0.8,0.8-2.5,0-3.1"/>
		<path class="st11" d="M56.6,41.2c0.9,0.3,1.4,1.7,2,2.3c-0.1,0.3-0.7,0.3-1,0.3c-0.5,0.1-1.1,0.3-1.5,0.6"/>
		<path class="st11" d="M57.8,43.8c-1.7-0.3-3.3-1.4-5-1.9c-1.9-0.5-3.8-0.7-5.7-0.7c-0.3,0-2-0.3-2.1,0.2c0.1,0,0.2,0.1,0.2,0.1"/>
		<path class="st3" d="M38,35.7c1,0,1.8-0.1,2.7,0.4c1.6,0.9,2.3,2.2,2.3,4c0,1.1-0.1,1.9-0.9,2.7c-0.8,0.7-1.9,1.4-3,1.7
			c-1.2,0.3-2.5,0.3-3.8,0.2c-0.9,0-1.7-0.1-2.5-0.6c-2.2-1.6-2.6-4.6-0.6-6.6c1.1-1,2.7-1.8,4.2-1.8c1,0,2.1-0.1,3,0.3"/>
		<path class="st3" d="M39.5,43.5c0.5,2.4,2,4.7,2.9,6.9c-0.3,0.2-0.7,0-1.1-0.1c-0.7-0.2-1.3-0.4-2-0.4c-0.4,0-0.8-0.1-1.2,0
			c-0.6,0.2-1.1,1-1.7,1.4c-0.8-0.3-0.1-2.2,0-2.8c0.2-1.4,0.3-2.7,0.2-4.1"/>
		<path class="st3" d="M35.5,44.2c0,2.1-0.8,4.2-1.3,6.2c-0.1,0.2-0.5,3-0.9,3.1c-0.3,0-0.5-0.5-0.5-0.7c-0.1-0.7,0-1.7-0.9-1.9
			c-0.9-0.2-1.6,0.2-2.4,0.4c-0.1-0.3,0.1-0.3,0.1-0.4c0.3-0.7,0.7-1.4,1.1-2c0.9-1.7,2.2-3.5,2.7-5.4c0,0.1,0,0.1,0,0.2"/>
		<path class="st12" d="M92.1,39c0.4-0.1,1.2,0.3,1.2,0.7c-0.3,0.2-0.7-0.1-1-0.2c-0.8-0.3-1.6-0.4-2.4-0.5c-2.7-0.7-5.8-0.9-8.3-2"
			/>
		<path class="st12" d="M90.6,42.8c0.3,0,0.6,0,0.9,0c-3.5-1-7.2-2.6-10.9-2.3"/>
		<path class="st12" d="M90.4,45.8c0.1,0,0.3,0,0.4,0c-1,0-2.1-0.3-3.1-0.5c-2.5-0.5-4.9-1.1-7.3-2"/>
		<path class="st12" d="M89.6,49.3c-0.3-0.3-0.5-0.2-0.9-0.2c-0.9,0-1.9-0.2-2.8-0.4c-1.3-0.2-2.7-0.4-4.1-0.6
			c-0.7-0.1-1.3-0.4-2-0.5"/>
		<ellipse class="st13" cx="37" cy="40.3" rx="3.8" ry="3.3"/>
		<polygon class="st14" points="42.2,17.9 47.3,16.5 51.4,19.9 51.6,14.5 56.1,11.6 51.1,9.8 49.8,4.7 46.5,8.9 41.2,8.5 44.1,13 		
			"/>
		<polygon class="st15" points="35.1,13.1 37.4,10.9 40.5,11.6 39.1,8.8 40.6,6 37.5,6.5 35.4,4.2 34.9,7.2 32.1,8.5 34.8,10 		"/>
	</g>
</g>
<g>
	<path class="st16" d="M119.3,32.6c0.2,0.5,0.3,1,0.3,1.6c0,2.3,0.6,4.6,1.1,6.8c0.3,1.4,0.7,2.8,0.8,4.3c0,0.4,0,0.9,0.1,1.3
		c0.1,0.7,0.5,0.6,1.1,0.4c0.7-0.2,1.3-0.5,1.9-0.8c0.5-0.2,1-0.4,1.4-0.7c0.5-0.4,0.4-0.6,0.2-1.2c-0.6-2.1-1.6-4-2.2-6.1
		c-0.4-1.4-0.8-2.8-1.2-4.2c-0.1-0.4-0.7-1.7-0.4-2.1"/>
	<path class="st17" d="M113.4,20.3c-1.7,1.4-2.9,3.2-2.8,5.7c0,1.8,0.3,4,1.3,5.5c0.9,1.2,2.7,2.1,4.1,2.3c1.8,0.3,3.7-0.2,5.4-0.8
		c1.7-0.6,3.4-1.4,4.7-2.8c1.1-1.2,1.2-3.1,0.9-4.8c-0.1-0.8-0.2-1.6-0.6-2.3c-0.5-0.9-1.4-1.5-2.2-2.1c-1.8-1.3-3.6-1.4-5.7-1.8
		c-1.5-0.3-3-0.1-4.3,0.7c-1.4,0.9-2.2,2.2-2.9,3.7"/>
	<path class="st18" d="M119.2,32.3c0.1,0.3,0.1,0.5,0.2,0.7c0.3,1.8,0.6,3.5,1,5.3c0.7,3,1.6,5.9,2.5,8.8c-0.1-0.2-0.2-0.5,0-0.7
		c0.2-0.2,0.9-0.3,1.1-0.4c0.6-0.2,1.5-0.3,2-0.6c0.3-0.2,0.3-0.3,0.1-0.6c-0.3-0.6-0.7-1.1-1-1.8c-0.9-2.1-1.8-4.1-2.4-6.3
		c-0.4-1.2-0.7-2.4-1.1-3.7c-0.1-0.3-0.4-0.8-0.2-1.1c-0.3,0.1-0.6,0.2-1,0.3c-0.6,0.2-1.3,0.6-1.9,0.5
		C118.6,32.8,118.6,32.7,119.2,32.3z"/>
	<path class="st18" d="M122.4,46.1c-0.3,0.1-0.1,0.5,0.1,0.6c0.6,0.5,1.6,0.4,2.3,0.2c0.5-0.1,1.2-0.2,1.4-0.8
		c0.1-0.3,0.1-1-0.5-0.8"/>
	<path class="st18" d="M119.1,33.6c0.7-0.2,3.2-1.4,3.5-0.3"/>
	<path class="st17" d="M110.5,25.5c-0.2,0.4-0.2,0.7-0.2,1.2c0.1,1.1,0.3,2.2,1,3.1c0.9,1.2,2.3,1.6,3.6,1.7c1.1,0.1,2.4,0,3.4-0.2
		c0.8-0.2,1.7-0.5,2.5-0.7c0.6-0.2,1.2-0.3,1.8-0.5c0.9-0.3,1.5-1,2.1-1.7c0.5-0.6,0.7-1.3,1.1-2.1c0.3-0.5,0.2-1.2,0.3-1.8
		c0-0.3,0.1-0.4,0-0.7c-0.1-0.3-0.2-0.5-0.2-0.8c0-0.2,0-0.4,0-0.6c-0.1-0.3-0.1-0.6-0.3-0.9c-0.1,0-0.1,0-0.2,0"/>
	<path class="st17" d="M110.8,29c-0.3-1.1,0.1-2,0.5-3c1-2.2,2.6-4.1,4.7-5.2c1.8-1,3.6-1.3,5.6-1c0.8,0.1,1.6,0.3,2.4,0.6
		c0.6,0.2,0.7,0.5,0.8,1.2"/>
	<ellipse transform="matrix(0.958 -0.2868 0.2868 0.958 -2.2545 34.901)" class="st19" cx="118" cy="25.1" rx="7.6" ry="5.8"/>
</g>
</svg>
