<?xml version="1.0" encoding="utf-8"?>
<!-- Generator: Adobe Illustrator 22.0.1, SVG Export Plug-In . SVG Version: 6.00 Build 0)  -->
<svg version="1.1" id="Layer_1" xmlns="http://www.w3.org/2000/svg" xmlns:xlink="http://www.w3.org/1999/xlink" x="0px" y="0px"
	 viewBox="0 0 145.6 214.1" style="enable-background:new 0 0 145.6 214.1;" xml:space="preserve">
<style type="text/css">
	.st0{fill:none;}
	.st1{fill:#231F20;}
	.st2{fill:none;stroke:#555A5E;stroke-width:1.0023;stroke-linecap:round;stroke-linejoin:round;stroke-miterlimit:10;}
	.st3{fill:#DD788B;}
	.st4{fill:#D85D5D;}
	.st5{fill:#8DD5EA;}
	.st6{fill:#F89F28;}
	.st7{fill:#1EA3C2;}
	.st8{fill:#60AF59;}
	.st9{fill:#A6D06F;}
	.st10{fill:url(#SVGID_1_);}
</style>
<pattern  x="423.6" y="434.1" width="28.8" height="28.8" patternUnits="userSpaceOnUse" id="_x31_0_dpi_10_x25_" viewBox="0.7 -29.5 28.8 28.8" style="overflow:visible;">
	<g>
		<rect x="0.7" y="-29.5" class="st0" width="28.8" height="28.8"/>
		<g>
			<circle class="st1" cx="29.5" cy="-0.7" r="0.7"/>
			<path class="st1" d="M15.1,0c0.4,0,0.7-0.3,0.7-0.7c0-0.4-0.3-0.7-0.7-0.7c-0.4,0-0.7,0.3-0.7,0.7C14.4-0.3,14.7,0,15.1,0z"/>
			<path class="st1" d="M29.5-14.4c0.4,0,0.7-0.3,0.7-0.7c0-0.4-0.3-0.7-0.7-0.7c-0.4,0-0.7,0.3-0.7,0.7
				C28.8-14.7,29.1-14.4,29.5-14.4z"/>
			<path class="st1" d="M15.1-14.4c0.4,0,0.7-0.3,0.7-0.7c0-0.4-0.3-0.7-0.7-0.7c-0.4,0-0.7,0.3-0.7,0.7
				C14.4-14.7,14.7-14.4,15.1-14.4z"/>
			<path class="st1" d="M7.9-7.2c0.4,0,0.7-0.3,0.7-0.7c0-0.4-0.3-0.7-0.7-0.7c-0.4,0-0.7,0.3-0.7,0.7C7.2-7.5,7.5-7.2,7.9-7.2z"/>
			<path class="st1" d="M22.3-7.2c0.4,0,0.7-0.3,0.7-0.7c0-0.4-0.3-0.7-0.7-0.7c-0.4,0-0.7,0.3-0.7,0.7C21.6-7.5,21.9-7.2,22.3-7.2z
				"/>
			<path class="st1" d="M7.9-21.6c0.4,0,0.7-0.3,0.7-0.7c0-0.4-0.3-0.7-0.7-0.7c-0.4,0-0.7,0.3-0.7,0.7C7.2-21.9,7.5-21.6,7.9-21.6z
				"/>
			<path class="st1" d="M22.3-21.6c0.4,0,0.7-0.3,0.7-0.7c0-0.4-0.3-0.7-0.7-0.7c-0.4,0-0.7,0.3-0.7,0.7
				C21.6-21.9,21.9-21.6,22.3-21.6z"/>
		</g>
		<g>
			<circle class="st1" cx="0.7" cy="-0.7" r="0.7"/>
			<path class="st1" d="M0.7-14.4c0.4,0,0.7-0.3,0.7-0.7c0-0.4-0.3-0.7-0.7-0.7c-0.4,0-0.7,0.3-0.7,0.7C0-14.7,0.3-14.4,0.7-14.4z"
				/>
		</g>
		<g>
			<path class="st1" d="M29.5-28.8c0.4,0,0.7-0.3,0.7-0.7c0-0.4-0.3-0.7-0.7-0.7c-0.4,0-0.7,0.3-0.7,0.7
				C28.8-29.1,29.1-28.8,29.5-28.8z"/>
			<path class="st1" d="M15.1-28.8c0.4,0,0.7-0.3,0.7-0.7c0-0.4-0.3-0.7-0.7-0.7c-0.4,0-0.7,0.3-0.7,0.7
				C14.4-29.1,14.7-28.8,15.1-28.8z"/>
		</g>
		<g>
			<path class="st1" d="M0.7-28.8c0.4,0,0.7-0.3,0.7-0.7c0-0.4-0.3-0.7-0.7-0.7c-0.4,0-0.7,0.3-0.7,0.7C0-29.1,0.3-28.8,0.7-28.8z"
				/>
		</g>
	</g>
</pattern>
<g>
	<g>
		<path class="st2" d="M45.6,45.9c1.3-0.8,2.7-0.6,3.9-1.7c1.3-1.2,2.2-2.9,2.2-4.7c0-3.8-0.3-7.8-1.8-11.4
			c-0.5-1.1-0.6-2.3-0.8-3.5c-0.2-1.1-0.6-2.3-0.7-3.4c0-0.9,0-1.9,0-2.8c0-1.3,0.7-2,1.4-3.1c0.6-0.9,1-1.7,1.9-2.4
			c1-0.8,1.8-1.7,2.9-2.5c1.1-0.7,2.1-1.5,3.2-2.2c1.8-1.1,3.2-1.3,5.2-1.7C66.5,6,69.9,6,73.3,6.7c1.5,0.3,3.1,0.8,4.4,1.6
			c0.6,0.3,1,0.8,1.6,1.2c0.9,0.6,1.8,1,2.6,1.8c0.9,0.8,2.2,1.7,2.8,2.8c0.7,1.1,0.7,2.5,1,3.8c0.4,1.9,0.8,4,0.4,6
			c-0.4,1.9-2.4,4.3-3.9,5.4c-2.5,1.8-5.3,2.9-8.2,3.9c-5.7,1.8-11.4,3-17.3,4.1c-1.2,0.2-2.5,0.3-3.3,1.4c-0.6,0.8-0.7,1.9-1.1,2.9
			c-0.4,0.9-1.1,2-1.9,2.6C49.8,44.7,49,44.8,45.6,45.9z"/>
		<path class="st2" d="M97.3,59.2c-1.3-0.8-2.7-0.6-3.9-1.7c-1.3-1.2-2.2-2.9-2.2-4.7c0-3.8,0.3-7.8,1.8-11.4
			c0.5-1.1,0.6-2.3,0.8-3.5c0.2-1.1,0.6-2.3,0.7-3.4c0-0.9,0-1.9,0-2.8c0-1.3-0.7-2-1.4-3.1c-0.6-0.9-1-1.7-1.9-2.4
			c-1-0.8-1.8-1.7-2.9-2.5c-1.1-0.7-2.1-1.5-3.2-2.2c-1.8-1.1-3.2-1.3-5.2-1.7c-3.4-0.7-6.7-0.7-10.1,0.1c-1.5,0.3-3.1,0.8-4.4,1.6
			c-0.6,0.3-1,0.8-1.6,1.2c-0.9,0.6-1.8,1-2.6,1.8c-0.9,0.8-2.2,1.7-2.8,2.8c-0.7,1.1-0.7,2.5-1,3.8c-0.4,1.9-0.8,4-0.4,6
			c0.4,1.9,2.4,4.3,3.9,5.4c2.5,1.8,5.3,2.9,8.2,3.9c5.7,1.8,11.4,3,17.3,4.1c1.2,0.2,2.5,0.3,3.3,1.4c0.6,0.8,0.7,1.9,1.1,2.9
			c0.4,0.9,1.1,2,1.9,2.6C93.2,58,94,58.1,97.3,59.2z"/>
	</g>
	<g>
		<path class="st3" d="M49.2,198.3c-0.4-0.4-0.9-0.8-1.4-1.2c-2.3-1.1-4.5-2.8-5.1-5.3c-0.2-0.4-0.4-0.8-0.5-1.3
			c-0.4-1-0.7-2.1-0.9-3.2c-0.1-0.8-0.1-1.5-0.1-2.3c-0.1-0.7-0.3-1.4-0.2-2.2c0.1-1.5,0.2-3,0.2-4.4c0.1-2,0.1-4,0.4-5.9
			c0.2-1.3,0.2-2.6,0.4-3.9c0.2-1.4,0.4-2.8,0.7-4.3c0.3-1.3,0.5-2.5,0.9-3.7c0.3-0.8,0.5-1.7,0.8-2.5c0.1-0.3,0.1-0.5,0.2-0.8
			c0.1-0.3,0.3-0.6,0.3-0.9c0.1-0.3,0-0.5,0.2-0.8c0.1-0.2,0.2-0.3,0.2-0.5c0-0.1,0.1-0.2,0.1-0.3c0.2-0.4,0.2-0.8,0.4-1.3
			c0.2-0.6,0.4-1.3,0.5-2c0.1-0.9,0.3-1.7,0.4-2.6c0.1-0.7,0.2-1.4,0.3-2l-10.9,0c0.4,0.4-0.2,1.3-0.3,1.6c-0.2,0.6-0.2,1.3-0.3,1.9
			c-0.1,0.7-0.3,1.3-0.4,2c-0.1,0.5-0.1,1.1-0.2,1.6l-0.1,0c0,0.4-0.2,0.8-0.2,1.2c-0.1,2-0.3,4.1,0,6.1c0.2,1.2,0.4,2.3,0.6,3.4
			c0.2,1,0.3,2,0.5,3c0.1,0.7,0.4,1.3,0.5,2c0.2,0.7,0.2,1.3,0.4,2c0.3,1,0.4,2,0.5,3c0.2,1.3,0.4,2.6,0.4,4c0,1.2-0.1,2.4-0.2,3.6
			c0,0.7-0.1,1.4-0.1,2c0,0.8-0.2,1.5-0.4,2.3c-0.2,1.1-0.5,2.1-0.6,3.2c-0.1,0.5-0.2,0.9-0.4,1.3c-0.1,0.5-0.3,0.9-0.4,1.4
			c-0.3,1.2-0.4,2.5-0.4,3.7c0,0.6-0.2,1.3,0.1,1.8c0.4,0.7,1.1,0.1,1.4-0.4c0.3-0.4,0.5-0.9,0.8-1.4c0.1-0.3,0.2-0.7,0.5-0.8
			c0.5-0.4,1.3,0.2,1.6,0.6c0.3,0.4,0.5,0.8,0.8,1.2c0.3,0.5,0.8,0.8,1.2,1.2c0.9,0.8,1.9,1.1,3,1.4c0.7,0.1,1.5,0.3,2.2,0.3
			c0.1,0,1.7-0.3,1.9-0.3C49.9,199.7,49.2,198.6,49.2,198.3z"/>
		<path class="st4" d="M35.1,148.1l-11.5,4.1c0.2,0.6-0.3,1.2-0.4,1.7c-0.1,0.3-0.1,0.6-0.1,0.9c-0.1,0.3-0.2,0.5-0.3,0.8
			c-0.1,0.3-0.1,0.6-0.1,0.9c-0.1,0.5,0,1,0,1.6c0,0.2,0,0.3,0,0.4c0,0.1-0.1,0.3-0.1,0.3c0,0.1,0.1,0.1,0.1,0.1
			c-0.1,1.8-0.1,3.7,0.2,5.5c0.2,1.1,0.5,2.3,0.7,3.4c0.2,1,0.4,2,0.6,2.9c0.2,0.7,0.4,1.3,0.6,2c0.2,0.7,0.3,1.3,0.5,2
			c0.3,1,0.4,2,0.6,3c0.2,1.3,0.5,2.6,0.5,4c0,1.2,0,2.4-0.1,3.6c0,0.7,0,1.4,0,2c0,0.8-0.2,1.5-0.3,2.3c-0.2,1.1-0.4,2.1-0.5,3.3
			c0,0.5-0.2,0.9-0.3,1.4c-0.1,0.5-0.2,0.9-0.3,1.4c-0.3,1.2-0.3,2.5-0.3,3.7c0,0.6-0.1,1.3,0.1,1.8c0.4,0.7,1.1,0.1,1.4-0.4
			c0.3-0.4,0.5-0.9,0.7-1.4c0.1-0.3,0.2-0.7,0.5-0.9c0.5-0.4,1.3,0.1,1.6,0.6c0.3,0.4,0.5,0.8,0.8,1.2c0.4,0.5,0.8,0.8,1.3,1.1
			c0.9,0.7,2,1.1,3.1,1.3c0.7,0.1,1.5,0.2,2.2,0.2c0.1,0,1.6-0.3,1.8-0.4c1.4-0.4,0.7-1.5,0.6-1.8c-0.5-0.4-0.9-0.8-1.4-1.1
			c-2.4-1-4.6-2.6-5.3-5.1c-0.2-0.4-0.4-0.8-0.6-1.3c-0.5-1-0.8-2-1-3.1c-0.1-0.8-0.1-1.5-0.2-2.3c-0.1-0.7-0.3-1.4-0.3-2.2
			c0-1.5,0.1-3,0.1-4.4c0-2,0-4,0.3-5.9c0.2-1.3,0.2-2.6,0.3-3.9c0.2-1.4,0.3-2.9,0.5-4.3c0.2-1.3,0.4-2.5,0.8-3.7
			c0.3-0.8,0.4-1.7,0.7-2.5c0.1-0.3,0.1-0.5,0.2-0.8c0.1-0.3,0.2-0.6,0.3-0.9c0.1-0.3,0-0.5,0.1-0.8c0.1-0.2,0.2-0.3,0.1-0.5l0,0
			c0.1-0.4,0.2-0.8,0.3-1.2c0.2-0.7,0.2-1.4,0.2-2c0-0.6,0.2-1.2,0.3-1.8c0.1-0.5,0.1-1,0.2-1.5c0.2-0.6,0.2-1.2,0.4-1.7
			C34.8,149.2,35.2,148.6,35.1,148.1z"/>
		<path class="st4" d="M18.7,106.4c0,2,0,4-0.2,6c-0.3,3.2-0.6,6.3-0.8,9.5c-0.3,3.1-0.1,6.3-0.1,9.4c0,2-0.2,3.8-0.4,5.8
			c-0.2,2.3-0.2,4.6-0.3,6.9c-0.1,4.1-1,8.1-0.9,12.2c0,1.9,0,3.9,0,5.8c0,0.3-0.2,1.6,0,1.9c0.1,0.1,0.7,0,0.9,0
			c0.5,0,1,0.1,1.5,0.3c5.4,1.4,10.8,2,16.4,2.1c2.7,0.1,5.3,0.1,8,0c2,0,4,0,5.9-0.4c0.8-0.1,1.9-0.3,2.4-1c0.4-0.5,0.1-1-0.1-1.6
			c-0.4-1-0.4-2-0.4-3c0-1.4-0.2-2.7-0.5-4c-0.8-3.1-1.2-6.3-1.5-9.4c-0.2-1.7-0.2-3.5-0.5-5.2c-0.4-2.1-1.2-4-1.3-6.1
			c-0.1-1.9-0.2-3.9-0.2-5.8c-0.1-1.4-0.3-2.7-0.5-4.1c-0.1-1.1-0.3-2.3-0.3-3.4c0-1,0.1-1.9,0-2.9c-0.4-3.1-0.3-6.4-0.2-9.5
			c0-0.6,0.2-1.2,0.3-1.8c0-0.5,0-1,0-1.4c0-0.4,0-0.9,0-1.3c0-0.6-0.2-0.7-0.7-1.1"/>
		<path class="st5" d="M65.3,70.2c0,0.2,0,0.4,0,0.7c0-1.7-0.1-3.3-0.2-4.9c-0.1-1.9-0.2-4.2,0.8-6c0.4-0.8,0.6-0.2,0.7,0.3
			c0.2,1.4,0.4,3,0.7,4.4c0.7,0.3,1-1,1.2-1.5c0.6-1.6,1.3-3.1,2-4.7c0.4-0.8,0.8-1.2,1.4-1.8c0.2-0.2,0.5-0.7,0.9-0.8
			c0.2,0.6,0,1.6,0,2.3c0,0.8,0,1.6,0,2.4c-0.1-0.4,0.2-2,0.8-1.9c0.4,0.1,0.6,1.3,0.7,1.7c0.2,0.8,0.2,1.5,0.2,2.4
			c0,1.2,0.2,2.5,0,3.7c-0.1,0.7-0.5,1.4-0.8,2c-0.3,0.7-0.6,1.4-1.1,2c-0.6,0.8-1.5,1.6-2.4,2.2c-0.4,0.3-0.8,0.7-1.3,0.8
			c-0.4,0.1-0.8,0-1.2,0c-0.9,0-2-0.1-2.6-1c-0.2-0.3-0.2-0.8-0.2-1.2C64.8,70.8,65.3,70.2,65.3,70.2z"/>
		<g>
			<path class="st6" d="M23.4,55.3c0.1,0,0.2-0.1,0.4-0.1C23.7,55.2,23.6,55.3,23.4,55.3z"/>
			<path class="st6" d="M22.8,55.6c0.2-0.1,0.4-0.2,0.6-0.3C22.9,55.5,22.7,55.5,22.8,55.6z"/>
			<path class="st6" d="M67.6,71.7c-0.7-0.6-1.6-1.4-2.1-2.3c-0.1-0.3-0.2-0.7-0.4-0.8c-0.5-0.3-0.5,0.2-0.8,0.6
				c-0.3,0.4-0.7,0.9-1.1,1.3c-0.6,0.7-1.3,1.2-1.8,1.8c-0.7,0.9-1.6,1.6-2.3,2.4c-0.7,0.8-1.5,1.7-2.3,2.5c-0.3,0.3-0.7,0.8-1.1,1
				c-0.7,0.4-1.1-0.1-1.5-0.6c-0.7-1.1-1.5-2.1-2.2-3.2c-0.3-0.5-0.6-1-1-1.5c-0.4-0.4-0.9-0.8-1.3-1.2c-0.8-0.8-1.4-1.4-2-2.3
				c-0.7-1-1.1-2.1-1.5-3.2c-0.4-0.9-1-1.8-1.4-2.7c-0.3-0.7-0.7-1.1-1.1-1.7c-0.7-1.3-2.2-2.4-3.4-3.2c-0.5-0.3-1.1-0.6-1.7-0.7
				c-0.6,0-1.1-0.2-1.7-0.2c-0.9-0.1-1.8-0.5-2.7-0.8c-0.5-0.1-1.1-0.4-1.6-0.4c0.2,0.2,0.1,0.4,0.2,0.6c0.1,0.2,0.3,0.2,0.3,0.4
				c0.2,0.3,0.2,1.1,0.1,1.4c-0.1,0.8-1,1.9-1.9,2.3c-0.1-0.1-0.2-0.1-0.3-0.2c-0.4-0.3-0.8-0.5-1.2-0.8c-0.5-0.3-1-0.4-1.5-0.6
				c-0.7-0.3-1.3-0.6-2-1c-0.4-0.2-0.9-0.4-1.3-0.7c-0.4-0.3-0.6-0.6-1-1c-0.1-0.1-0.3-0.2-0.4-0.3c-0.2-0.2-0.2-0.4-0.3-0.6
				c-0.2-0.2-0.4-0.3-0.5-0.4c-0.2,0.1-0.5,0.3-0.6,0.3C21,56.6,20,57.4,19,58.1c-1.6,1.1-3.3,2.1-4.8,3.4c-1.1,0.9-2.2,1.6-2.9,2.8
				c-0.4,0.8-0.9,1.3-1.1,2.2c-0.4,1.6-0.5,3.2-0.8,4.9c-0.2,0.8-0.1,1.6-0.3,2.4c-0.2,0.9-0.5,1.9-0.6,2.9
				c-0.1,1.6-0.3,3.1-0.5,4.7c-0.1,1.5-0.9,3-1.2,4.5c-0.3,1.9,0,4-0.1,5.9c0,1.3,0.4,2.5,0.8,3.7c0.2,0.4,0.4,1,0.7,1.4
				c0.5,0.4,1.5,0.9,2.1,1.1c1.8,0.6,4.4,0.6,6.2,0.2c1.2-0.2,2.4-0.5,3.6-0.9c0,0,0,0.1,0,0.1c-0.4,0.6-0.9,1.2-1.1,1.9
				c-0.2,0.6-0.2,1.1-0.4,1.7c-0.4,1-0.6,1.9-0.8,2.9c-0.2,1-0.1,1.9-0.2,2.9c0,0.8-0.2,1.5-0.2,2.2c0,0.6-0.3,1-0.2,1.6
				c0,0.6-0.1,0.9,0.3,1.3c0.5,0.5,1.1,0.7,1.7,0.9c1,0.3,1.8,1,2.8,1.3c0.9,0.2,1.9,0.4,2.8,0.5c1.3,0.1,2.7,0.1,4.1,0.2
				c1,0.1,1.9,0.3,2.9,0.3c3,0.1,6.1,0.1,9-1c2-0.8,4.2-1.5,5.7-3.1c0.7-0.8,0.5-1.7,0.5-2.7c0-1.2-0.4-2-0.7-3.1
				c-0.2-0.7-0.5-1.1-0.9-1.7c-0.2-0.3-0.3-0.8-0.3-1.2c0-0.6-0.2-0.9-0.2-1.4c-0.2-1.9,0-3.9,0-5.8c0-0.4,0.1-1,0-1.5
				c-0.1-0.3-0.4-0.7-0.4-1c-0.2-1-0.3-1.8-0.3-2.8c0-1.3,0.2-2.5,0.2-3.8c0-0.5-0.1-1.2,0-1.7c0.1-0.3,0.5-0.7,0.7-1
				c0.5-0.6,1-1.1,1.5-1.7c0,0,0.1,0,0.1,0c0.7,0.3,1.4,0.6,2,0.8c0.8,0.3,1.3,1,2,1.6c1.6,1.5,3.5,2.9,5.6,3.6
				c0.6,0.2,0.7,0.2,1.2-0.1c0.3-0.2,0.6-0.4,0.8-0.6c0.1-0.2,0.2-0.4,0.4-0.6c0.2-0.1,0.3-0.2,0.5-0.3c0.2-0.3,0.3-0.6,0.5-0.9
				c0.4-0.4,0.8-0.8,1.2-1.3c0.7-1,1.5-1.7,2.4-2.5c0.6-0.5,1.1-0.8,1.7-1.2c0.8-0.5,1.5-1.3,2.3-2c1.3-1.2,2.7-2.2,3.9-3.4
				C70.5,73.5,68.7,72.6,67.6,71.7z M16.2,88.7c-0.2-0.1-0.4-0.9-0.6-1.2c-0.3-0.7-0.3-1.5-0.3-2.2c0-1.2-0.2-2.5,0.2-3.6
				c0.3-0.9,0.6-1.8,1-2.7c0.3-0.6,0.1-1.1,0.2-1.7c0.2-1.5,1,0,1.2,0.7c0.4,1.2,0.7,2.4,1.2,3.6c0.6,1.4,1,2.9,1.3,4.4
				c0.1,0.8,0.4,1.3,0.7,1.8c-1.3,0.4-2.6,0.7-3.9,0.8C17,88.8,16.4,88.8,16.2,88.7z"/>
		</g>
		<path class="st5" d="M27.4,86.5c0,0,0-0.1,0-0.1c0.1,0.1,0.2,0.1,0.4,0.1c0.3-0.3,0.3-0.8,0.6-1.2c0.3-0.4,0.7-0.8,1-1.3
			c0.5-0.8,1.2-1.5,1.8-2.2c0.5-0.6,1.3-1.1,1.9-1.5c0.3-0.2,0.6-0.4,1-0.6c0.2-0.1,0.6-0.2,0.8-0.4c-0.1,0.6,0,0.8-0.3,1.3
			c-0.3,0.5-1.2,1.3-1.1,1.9c1.1,0.2,2.2-0.4,3.1-0.9c0.5-0.3,0.9-0.7,1.4-1c0.3-0.2,0.7-0.7,1-0.7c0.7-0.1,0.5,0.4,0.5,0.9
			c0,0.7,0.1,1.5,0,2.2c-0.2,1.2-0.9,2.4-1.5,3.4c-0.7,1.2-1.3,2.7-2.5,3.6c-1.4,1-2.9,1.7-4.6,2c-1,0.2-1.9,0.6-2.5-0.5
			c-0.6-1.2-0.8-2.1-0.8-3.4c0-0.5,0-1.1,0-1.6c0-0.3,0.2-0.4,0.2-0.6C27.9,85.5,27.9,85,27.4,86.5z"/>
		<path class="st7" d="M37.5,37.9c0.2-0.5,1-0.5,1.4-0.7c0.4-0.2,0.7-0.6,1-1c0.4-0.5,1-1,1.1-1.6c0.5-1.7-2.1-4.3-3.9-4.3
			c-1,0-1.5,0.8-2.1,1.3c-0.5,0.4-1.2,0.8-1.9,1c-1.4,0.4-2.6-0.9-4-1.1c-0.9-0.1-1.9-0.4-2.7-0.3c-1.1,0.2-1.7,0.6-2.4,1.2
			c-0.8,0.7-1.5,1.3-2.1,2.2c-0.6,0.8-1.6,1.7-1.5,2.9c0.2,2,0.5,4.2,1.6,6c0.4,0.6,0.8,1.1,1.3,1.6c0.1,0.2,0.3,0.4,0.4,0.6
			c0.2,0.2,0.6,0.4,0.8,0.6c0.9,0.9,1.7,1.8,2.9,1.8c0.6,0,1.4,0,1.9-0.3c1.2-0.6,2.1-1.6,2.9-2.7"/>
		<path class="st5" d="M41.9,45.6c-0.1-0.5-0.6-0.9-0.9-1.3c-0.6-0.9-1.3-1.6-1.7-2.6c-0.3-0.7-0.5-1.4-0.7-2.1
			c-0.2-0.5-0.6-1.4-0.7-2c-0.5,0-1,0.2-1.4,0.2c-0.9-0.1-1.7-0.2-2.6-0.3c-1-0.1-1.7,2.3-1.9,2.8c-0.1,0.3-0.6,0.7-0.7,1
			c-0.1,0.2-0.2,0.5-0.3,0.7c-0.1,0.3-0.1,0.9-0.6,0.8c-0.3-0.1-0.8-0.7-1.1-0.9c-0.5-0.3-1-0.5-1.5-0.1c-0.6,0.5-1.4,1.7-1.3,2.5
			c0.1,0.7,0.8,1.3,1.3,1.8c-0.3,0.5-1.9-0.2-2.4,0.1c-0.5,0.3,0,1.3,0.1,1.7c0.2,0.7,0.8,1.2,1.2,1.7c0.4,0.5,0.8,1.1,1.3,1.6
			c-0.6,0.8-1.3,1.5-1.9,2.2c-0.5,0.5-0.9,1.1-1.4,1.5c-0.2,0.2-0.5,0.4-0.8,0.5c-0.2,0.1-0.3,0.1-0.5,0.1c-0.2,0-0.2,0.1-0.4,0.1
			c-0.2,0-0.3,0-0.4,0.1c1.2,0.9,1.9,2.5,3.1,3.4c0.7,0.5,1.5,1,2.4,1.2c0.8,0.2,1.6,0.5,2.4,0.6c0.7,0,1.3,0.1,2,0
			c0.6-0.1,1.2-0.4,1.8-0.6c0.5-0.2,0.8-0.5,1.3-0.8c0.2-0.1,0.5-0.3,0.5-0.5c-1.1-0.3-2.2-0.8-3-1.6c-0.8-0.8-1.1-2-0.8-3
			c1,0.4,2.1,0.4,3.2,0.4c1.2,0,3-0.2,3.2-1.7c0.1-0.7,0-1.5-0.1-2.2c-0.1-1.5,0.2-2,0.1-3.1c0-0.1,0-0.2,0.1-0.3c0-0.1,0-0.3,0-0.4
			c0.1-0.2,0.2-0.5,0.4-0.7c0.3-0.2,0.9-0.2,1.3-0.3C41,46.1,42,46.3,41.9,45.6z"/>
		<path class="st7" d="M30.2,49c0-1.5-1.3-2.7-2.4-3.5c-0.5-0.3-0.9-0.6-1.4-0.8c-0.2-0.1-0.5-0.1-0.7-0.1c0-0.2,0-0.3,0-0.5
			l-4.3-8.2c0-0.5-1.2,0.1-1.5,0.2c-1.1,0.4-2.3,1.3-2.7,2.4c-0.5,1.2-0.6,2.4,0.3,3.5c0.6,0.7,1.5,1,2.4,1
			c-0.2,0.1-0.3,0.1-0.5,0.2c-0.4,0.1-0.7,0.1-1.1,0.3c-1.1,0.4-2.1,0.9-3,1.7c-0.7,0.6-0.6,2.2-0.4,3c0.2,1.1,1.3,2,2.2,2.6
			c0.8,0.6,1.9,0.7,2.9,0.7c0.3,0,1.6-0.1,1.9,0.1c0.2,0.2-0.1,0.9,0,1.1c0,0.8,0.8,1.1,1.6,1.2c1.5,0.4,4.1,0,5-1.5
			c0.2-0.3,0.4-0.6,0.5-1c0.2-0.1,0.3-0.2,0.4-0.3C29.8,50.7,30.2,49.8,30.2,49z"/>
	</g>
	<g>
		<g>
			<path class="st4" d="M103.5,48.5c-0.2-0.5-1-0.5-1.4-0.7c-0.4-0.2-0.7-0.6-1-1c-0.4-0.5-1-1-1.1-1.6c-0.5-1.7,2.1-4.3,3.9-4.3
				c1,0,1.5,0.8,2.1,1.3c0.5,0.4,1.2,0.8,1.9,1c1.4,0.4,2.6-0.9,4-1.1c0.9-0.1,1.9-0.4,2.7-0.3c1.1,0.2,1.7,0.6,2.4,1.2
				c0.8,0.7,1.5,1.3,2.1,2.2c0.6,0.8,1.6,1.7,1.5,2.9c-0.2,2-0.5,4.2-1.6,6c-0.4,0.6-0.8,1.1-1.3,1.6c-0.1,0.2-0.3,0.4-0.4,0.6
				c-0.2,0.2-0.6,0.4-0.8,0.6c-0.9,0.9-1.7,1.8-2.9,1.8c-0.6,0-1.4,0-1.9-0.3c-1.2-0.6-2.1-1.6-2.9-2.7"/>
			<path class="st5" d="M102,192.1c1.5-0.8,2.9-3.2,3.1-5.3c0.2-1.4,0-3-0.2-4.4c-0.1-1.2,0-2.3-0.1-3.6c-0.1-2.3,0.2-4.6,0.1-6.9
				c-0.1-3.3-0.5-6.7-0.8-10c-0.5-4.3-0.5-8.6-1-13c-0.6-4.8-1.7-9.5-2.1-14.3c-0.4-4.1-0.6-8.2-1.5-12.3c-0.2-0.7-0.4-1.5-0.5-2.2
				c0-0.8,0-1.7,0-2.5c0-0.5,0-1,0-1.5l21-1.5c0.6,1.6,0.3,2.8,0.1,4.4c-0.6,4.9-0.8,9.9-1.2,14.8c-0.5,5.6-1,11-1.9,16.4
				c-0.8,4.5-1.1,9.2-1.9,13.7c-0.8,4.8-1.5,9.9-1.8,14.9c-0.1,2.3-0.1,4.1-0.5,6.2c-0.2,1.2-0.2,2.4-0.4,3.6
				c-0.2,1.3-0.5,2.5-0.7,3.7c-0.2,0.9-0.2,2.5-0.8,3.2c-1.3,1.4-2.1-0.5-2.6-2c-2.1-0.3-3.5,1.6-5.3,2.1c-1.1,0.3-1.9,0.7-3.1,0.3
				c-0.5-0.1-2.8-0.7-2.9-1.3C96.3,192.8,101.3,192.5,102,192.1z"/>
			<path class="st7" d="M124.1,116.5c0.8,1.5,0.6,2.7,0.5,4.3c-0.2,4.9,0.2,9.9,0.2,14.9c0.1,5.6,0.2,11.1-0.3,16.5
				c-0.4,4.6-0.2,9.2-0.5,13.8c-0.3,4.9-0.5,10.1-0.3,15c0.1,2.3,0.3,4.1,0.2,6.2c-0.1,1.2,0,2.4-0.1,3.7c-0.1,1.3-0.3,2.5-0.3,3.8
				c-0.1,1,0.1,2.5-0.4,3.3c-1.1,1.6-2.2-0.3-2.8-1.7c-2.1-0.1-3.3,2-5,2.7c-1.1,0.4-1.9,0.9-3.1,0.7c-0.5-0.1-2.8-0.4-3-0.9
				c-0.6-1.8,4.2-2.6,4.9-3.1c1.4-1,2.5-3.5,2.6-5.7c0-1.4-0.3-3-0.6-4.4c-0.3-1.2-0.2-2.2-0.5-3.6c-0.4-2.3-0.3-4.6-0.6-6.9
				c-0.5-3.3-1.1-6.6-1.8-9.9c-0.9-4.3-1.3-8.5-2.3-12.8c-1.1-4.7-2.6-9.2-3.6-13.9c-0.8-4-1.4-8.1-2.7-12c-0.7-2-1.4-4-2.1-6"/>
			<path class="st7" d="M99.2,109.3c-0.7,0.6-0.4,2.1-0.5,2.9c-0.1,1.5-0.2,3-0.2,4.6c0,0.7,0,1.4,0,2.2c0,0.6-0.1,0.8,0.5,1.1
				c1.5,0.7,3,1.7,4.1,2.9c1.4,1.6,4.1,1,6,1c2,0,4.2,0.1,6.1,0.8c0.7,0.3,1.5,0.9,2.2,1c0.6,0.1,1.3-0.6,1.7-0.8
				c0.7-0.5,1.4-0.8,2.1-1.2c1-0.5,1.6-0.8,2.2-1.8c0.3-0.6,0.8-1.3,0.9-2c0.1-0.4,0-0.7,0-1.1c0-0.4,0.1-0.6,0.2-1
				c0.2-1.2-0.1-2.5-0.5-3.5c-0.1-0.3-0.3-0.4-0.5-0.7c-0.2-0.3-0.2-0.7-0.3-1.1c-0.3-0.6-0.9-1.5-1.4-2c-0.1-0.1-0.3-0.3-0.5-0.4
				c-0.2-0.1-0.5-0.1-0.7-0.2c-0.4-0.2-0.5-1-1-1.1"/>
			<path class="st6" d="M92.5,100.5c0.1-0.4-0.2-0.8-0.4-1.1c-0.6-0.8-1.2-1.6-1.9-2.3c-1.2-1.3-2.4-2.6-3.8-3.6
				c-0.4,1.3,0.4,2.7,1.3,3.6c-0.3,0-0.5,0.2-0.8,0.2c-0.6,0.1-1.3-0.1-1.8,0c-1.4,0.2-2.8,0.5-4.1,1c-0.4,0.2-0.7,0.2-0.7,0.8
				c0,0.4,0.1,0.5,0.5,0.6c0.5,0.2,0.8,0.3,1.3,0.7c0.4,0.3,1.1,0.5,1.4,0.9c-0.6,0.2-1.4-0.1-2-0.2c-0.4,0-1.4-0.5-1.7-0.2
				c-0.5,0.4,0.3,0.6,0.6,0.8c1.2,0.7,2.3,1.5,3.4,2.4c1.5,1.3,4.5,1.1,6.5,1c0.9,0,1.9-0.2,2.7-0.7c0.4-0.2,0.7-0.7,1.2-0.7
				C93.9,103.5,93.8,103.4,92.5,100.5z"/>
			<line class="st6" x1="114.5" y1="105.5" x2="103.3" y2="105.5"/>
			<path class="st6" d="M99.2,56.5c0.1-0.5,0.6-0.9,0.9-1.3c0.6-0.9,1.3-1.6,1.7-2.6c0.3-0.7,0.5-1.4,0.7-2.1c0.2-0.5,0.6-1.4,0.7-2
				c0.5,0,1,0.2,1.4,0.2c0.9-0.1,1.7-0.2,2.6-0.3c1-0.1,1.7,2.3,1.9,2.8c0.1,0.3,0.6,0.7,0.7,1c0.1,0.2,0.2,0.5,0.3,0.7
				c0.1,0.3,0.1,0.9,0.6,0.8c0.3-0.1,0.8-0.7,1.1-0.9c0.5-0.3,1-0.5,1.5-0.1c0.6,0.5,1.4,1.7,1.3,2.5c-0.1,0.7-0.8,1.3-1.3,1.8
				c0.3,0.5,1.9-0.2,2.4,0.1c0.5,0.3,0,1.3-0.1,1.7c-0.2,0.7-0.8,1.2-1.2,1.7c-0.4,0.5-0.8,1.1-1.3,1.6c0.6,0.8,1.3,1.5,1.9,2.2
				c0.5,0.5,0.4,1.9,0.9,2.4c0.2,0.2-2.2,4.4-3,4.7c-0.8,0.2-1.6,0.5-2.4,0.6c-0.7,0-1.3,0.1-2,0c-0.6-0.1-1.2-0.4-1.8-0.6
				c-0.5-0.2-0.8-0.5-1.3-0.8c-0.2-0.1,1.7-1.3,2.5-2.2c0.8-0.8,1.1-2,0.8-3c-1,0.4-2.1,0.4-3.2,0.4c-1.2,0-3-0.2-3.2-1.7
				c-0.1-0.7,0-1.5,0.1-2.2c0.1-1.5-0.2-2-0.1-3.1c0-0.1,0-0.2-0.1-0.3c0-0.1,0-0.3,0-0.4c-0.1-0.2-0.2-0.5-0.4-0.7
				c-0.3-0.2-0.9-0.2-1.3-0.3C100,57,99,57.2,99.2,56.5z"/>
			<path class="st4" d="M111.5,60.1c0-1.5,1.3-2.7,2.4-3.5c0.5-0.3,0.9-0.6,1.4-0.8c0.2-0.1,0.5-0.1,0.7-0.1c0-0.2,0-0.3,0-0.5
				l4.3-8.2c0-0.5,1.2,0.1,1.5,0.2c1.1,0.4,2.3,1.3,2.7,2.4c0.5,1.2,0.6,2.4-0.3,3.5c-0.6,0.7-1.5,1-2.4,1c0.2,0.1,0.3,0.1,0.5,0.2
				c0.4,0.1,0.7,0.1,1.1,0.3c1.1,0.4,2.1,0.9,3,1.7c0.7,0.6,0.6,2.2,0.4,3c-0.2,1.1-1.3,2-2.2,2.6c-0.8,0.6-1.9,0.7-2.9,0.7
				c-0.3,0-1.6-0.1-1.9,0.1c-0.2,0.2,0.1,0.9,0,1.1c0,0.8-0.8,1.1-1.6,1.2c-1.5,0.4-4.1,0-5-1.5c-0.2-0.3-0.4-0.6-0.5-1
				c-0.2-0.1-0.3-0.2-0.4-0.3C111.8,61.8,111.5,60.9,111.5,60.1z"/>
			<path class="st8" d="M137.1,96.8c-0.8-1.5-1.8-2.9-2.5-4.5c-1-2-2.4-3.9-3.7-5.7c-0.6-0.8-1.1-1.8-1.5-2.8c0-0.1-0.1-0.2-0.1-0.3
				c-0.2-0.6-0.5-1.2-0.7-1.9c-0.2-0.6-0.3-1.1-0.5-1.7c-0.3-0.9-0.7-1.7-0.9-2.6c-0.1-0.6-0.3-1.2-0.5-1.8
				c-0.1-0.7-0.3-1.4-0.5-2.1c-0.2-0.6-0.5-1.3-0.7-1.9c-0.2-0.4-0.3-0.9-0.4-1.3c-0.1-0.2-0.1-0.5-0.2-0.7
				c-0.1-0.2-0.2-0.2-0.3-0.4c-0.3-0.3-0.4-0.5-0.9-0.6c-0.4-0.1-0.9-0.2-1.4-0.2c-0.4,0-0.7-0.2-1.1-0.3c-1.2-0.4-2.4-0.5-3.5-0.8
				c-0.3-0.1-0.7-0.2-1-0.3c-0.1-0.1-0.2-0.1-0.4-0.1c-0.2,0-0.4,0-0.6,0.1c-0.2,0.1-0.3,0.3-0.5,0.5c-0.1,0.1-0.2,0.3-0.3,0.4
				c-0.1,0.2-0.2,0.4-0.3,0.6c-0.2,0.3-0.5,0.6-0.7,0.9c-0.6,0.2-1.1,0.3-1.7,0.3l-6.8,0.7c0.1,0.3-0.3,0.7-0.4,0.9
				c-0.6,1.3-1.1,2.6-1.7,3.9c-0.7,1.4-1.6,2.7-2.3,4.2c-0.4,0.9-0.8,1.9-1.2,2.8c-0.2,0.4-0.3,0.8-0.4,1.2
				c-0.1,0.2-0.1,0.7-0.2,0.9c-0.1,0.3-0.3,0.4-0.5,0.7c-0.1,0.3-0.2,0.6-0.2,1c0,0.7-0.1,1.3,0.2,1.8c0.3,0.5,0.7,1,1,1.6
				c0.3,0.5,0.8,1,0.9,1.6c0.1,0.7,0,1.5,0,2.2c0,0.6,0,1.3,0,1.9c0,0.6-0.1,1.2-0.3,1.9c-1,0.9-2.2,1.6-3.5,2.2
				c-1,0.5-2.6,0.9-3.7,0.9c-0.4,0-0.8,0-1.2,0c-0.5,0-0.5-0.1-0.7,0.3c-0.5,0.9-0.4,2.1-0.4,3.1c0,0.7,0,1.3,0.4,1.9
				c0.5,0.8,1.7,1.3,2.6,1.6c1.7,0.5,3.8,0.3,5.5-0.1c0.1,0,0.1,0,0.2,0c-0.1,0.4-0.2,0.8-0.2,1.2c0,0.4,0,0.8,0,1.2
				c0,0.5,0.2,0.8,0.7,1c1.1,0.5,2.7,0.6,3.9,0.7c1.8,0.2,3.6,0.2,5.3,0.3c0.5,0,1,0.1,1.4,0.1l-1.5,0.8c-0.1,0-0.1,0-0.2,0
				c-0.2,0.6,0.1,1.5,0.2,2.1c0.4,2.8,0.9,5.7,1.2,8.5c0.2,2.5,0.3,5.1,0.5,7.6c0.2,1.8,0.3,3.7,0.4,5.5c0,0.4-0.2,2,0.2,2.2
				c0.3,0.1,1,0,1.3,0c1.5,0,3-0.2,4.5-0.5c2-0.4,4.1-0.4,6.1-1c0.5-0.1,1-0.4,1.5-0.6c0.3-0.1,0.6-0.1,0.8-0.4
				c0.2-0.3,0.2-0.7,0.3-1c0.1-2.1-0.2-4.2,0.2-6.3c0.1-0.6,0-1.1,0-1.7c0-0.4,0.2-0.7,0.2-1.1c0.1-0.8,0-1.7,0-2.6
				c0-0.8,0.2-1.8,0-2.6c-0.1-0.6-0.4-1.3-0.4-2c0-0.6-0.1-1.3-0.2-1.9c-0.1-0.6-0.6-1.3-0.8-1.9c-0.5-1.4-1.4-2.6-2.2-3.8
				c-0.1-0.1-0.2-0.3-0.3-0.4c0.4-0.1,0.7-0.2,1.1-0.3c2.2-0.6,4.1-1.6,6.1-2.5c1.1-0.5,2.3-0.8,3.4-1.4c0.9-0.5,1.9-1,2.7-1.6
				c0.6-0.4,1.5-1.1,2-1.6c0.6-0.7,0.6-1.4,0.6-2.3C138.2,99,137.7,98.1,137.1,96.8z M128,97.1c-0.2,0.6-1.2,1-1.7,1.4
				c-1.2,0.9-2.4,1.7-3.6,2.4c0-0.5,0-1,0-1.4c0-3,0-5.9,0-8.9c0-0.4,0-0.8,0-1.2c0,0,0-0.1,0.1-0.1c0.1,0.1,0.2,0.2,0.3,0.4
				c1,1.2,1.8,2.4,2.8,3.6C126.6,94.1,128.4,95.6,128,97.1z"/>
			<path class="st9" d="M114.2,69c-0.1-0.1-0.3,0.1-0.4,0.1c-0.2,0-0.4,0-0.6,0c-0.4,0-0.8,0.2-1.2,0.2c-0.8,0.1-1.7,0.3-2.5,0.3
				c-1,0.1-2.1-0.1-3.1,0c-0.2,0-0.4,0.1-0.7,0.1l0.1,0.2c0,0.3-0.3,0.5-0.4,0.8c-0.1,0.3-0.2,0.5-0.4,0.8c-0.3,0.7-0.5,1.4-0.9,2.1
				c-0.5,1-1.1,1.9-1.6,2.9c-0.6,1.2-1.2,2.4-1.9,3.5c-0.5,0.9-0.8,1.7-1.2,2.6c-0.2,0.4-0.2,0.8-0.3,1.2c-0.1,0.3-0.3,0.5-0.4,0.8
				c-0.1,0.5,0,1.1,0,1.6c0,0.4-0.1,1.1,0,1.5c0.2,0.4,0.6,0.7,0.8,1.1c0.2,0.3,0.4,0.7,0.5,1c0.1,0.2,0,0.4,0,0.7
				c0,0.4,0.2,0.4,0.2,0.7c0.2,1,0.1,2.4,0,3.4c-0.1,1.1-0.4,2.3-0.5,3.4c-0.1,1.2-0.2,2.6-0.5,3.8c-0.2,0.8-0.2,1.5-0.4,2.3
				c-0.2,0.8-0.3,1.6-0.3,2.4c0,1.1,0,2.1,0,3.2c0,0.6,0,0.8,0.5,1.2c0.6,0.4,1.2,0.5,1.9,0.5c1.3,0,2.5,0.5,3.9,0.5
				c1,0,2,0.2,3,0.2c0.6,0,1.3-0.1,1.9-0.3c0.4-0.1,1.3-0.5,1.5-0.9c0.4-0.5,0.1-2.3,0.1-3c0-1.5,0-3,0-4.5c0-3.4-0.7-6.8-0.7-10.2
				c0-1.2-0.2-2.3-0.2-3.5c0-0.9,0-1.8,0-2.7c0-2.1,0-4.1,0-6.2c0-2.1,0.6-4.1,1.2-6.1c0.2-0.6,0.2-1.1,0.4-1.7
				c0.1-0.3,0.3-0.7,0.4-1.1c0.1-0.1,0.2-0.2,0.3-0.3c0.4-0.5,0.6-1,0.9-1.5c0.2-0.3,0.3-0.6,0.4-0.9
				C114.2,69.2,114.3,69.1,114.2,69z"/>
			<path class="st6" d="M115.5,104.6c0-0.1,0-0.1,0-0.2c-0.3-0.1-0.6,0-0.8,0c-1,0-2.1,0-3.1,0c-1.2,0-2.4-0.1-3.6,0
				c-0.5,0-1.1,0.3-1.7,0.2c0.3,0.3,0.7,0.3,1.1,0.4c0.5,0.2,1,0.4,1.5,0.7c0.1,0,0.7,0.2,0.7,0.4c0.2,0.4-0.4,0.6-0.7,0.8
				c-1,0.8-1.8,1.8-2.6,2.7c-0.7,0.7-0.9,1.2-0.9,2.1c0,0.5-0.1,1.2,0,1.7c0.1,0.5,0.3,0.5,0.8,0.6c0.4,0,1.4-0.4,1.7-0.2
				c0,0.3-0.1,0.5,0.2,0.7c0.2,0.1,0.7,0,0.9,0c1,0,2,0,3-0.2c0.7-0.2,1.4-0.4,2.1-0.7c0.8-0.2,1.6-0.5,2.3-0.9
				c0.7-0.3,1-0.6,1.3-1.3c0.6-1.2,0.7-2.5,0.1-3.8c-0.4-0.8-0.7-1.5-1.4-2.2c-0.2-0.2-0.4-0.4-0.6-0.6
				C115.5,104.7,115.3,104.7,115.5,104.6z"/>
		</g>
		<pattern  id="SVGID_1_" xlink:href="#_x31_0_dpi_10_x25_" patternTransform="matrix(0.3933 0 0 0.3933 -4883.6709 -5191.4521)">
		</pattern>
		<path class="st10" d="M109.1,116.1c0-0.7,0-1.2-0.8-1.5c-0.8-0.3-1.8-0.4-2.7-0.7c-1.1-0.4-2.1-1-3.1-1.5
			c-0.5-0.3-1.4-0.7-2.1-0.6c-1,0.2-0.8,1.8-0.8,2.5c-0.1,3.4-0.2,7,0.2,10.4c0.1,1.5,0.3,3,0.4,4.5c0.1,1.3,0,2.6,0.2,3.9
			c0.1,1.4,0.1,2.8,0.1,4.3c0.1,1.4,0.7,2.8,0.9,4.2c0.5,2.7,0.9,5.3,1.3,8c0.4,2.5,0.6,5,0.7,7.5c0,1.2,0.4,2.3,0.6,3.5
			c0.2,1.2,0.3,2.3,0.4,3.5c0.3,2.3,0.5,4.5,0.8,6.8c0.3,1.9,0.4,3.8,0.4,5.8c0,1.9-0.1,3.8,0,5.8c0,0.7,0.2,1.5,0.2,2.2
			c0,0.6,0,1.2,0,1.8c0,0.8-0.2,1.9,0,2.7c0.2,0.9,2.4,0.4,2.9,0c2-1.7,2-4.6,2.6-7c0.9-3.9,2-7.6,3.4-11.4c0.4-1.1,0.7-2.3,0.8-3.5
			c0-0.7,0.1-1.3,0.5-2c-0.1,1.1,0,2.2,0,3.3c0,5.3-0.2,10.6-0.2,15.9c0,1.8,0,3.7,0,5.5c0,0.5-0.1,1,0,1.4c0.1,0.3,0.3,0.4,0.4,0.7
			c0.3,0.5,0.5,1,1.1,1.3c1,0.6,2.4,0.4,3.4-0.1c1.4-0.7,1.9-2.2,2.2-3.8c0.3-1.3,0.3-2.7,0.4-4c0.2-1.9,0.3-3.9,0.4-5.8
			c0.3-4.4,1-8.7,1.2-13.1c0.1-3.5,0-7,0-10.5c0-1.3,0-2.7,0-4c0-1.2,0.1-2.6,0-3.8c-0.3-1.9-0.5-4-0.9-5.9
			c-0.2-0.8-0.4-1.6-0.4-2.4c0-0.3,0.1-0.6,0-0.9c-0.1-0.4,0-0.3-0.3-0.5c-1.1-0.6-2.8,0.1-3.9,0.2c-1.8,0.2-3.8,0.1-5.6-0.1
			c-0.8-0.1-1.6-0.2-2.4-0.3c-0.4,0-0.8,0-1.1-0.3c-0.4-0.3-0.9-1-1.2-1.4c-0.7-0.9-0.8-1.9-0.9-2.9c-0.2-1.5-0.1-3.1-0.1-4.7
			c0-0.7,0-1.4,0-2.1c0-1.6-0.3-2.9-0.7-4.5"/>
	</g>
</g>
</svg>
