<?xml version="1.0" encoding="UTF-8"?>
<svg width="174px" height="63px" viewBox="0 0 174 63" version="1.1" xmlns="http://www.w3.org/2000/svg" xmlns:xlink="http://www.w3.org/1999/xlink">
    <!-- Generator: sketchtool 44.1 (41455) - http://www.bohemiancoding.com/sketch -->
    <title>BE59B678-D067-4D0F-8BD7-D781A89E484D</title>
    <desc>Created with sketchtool.</desc>
    <defs>
        <path d="M9.48405405,4.04625 C9.21081081,4.613375 9.00891892,4.5816875 8.61405405,4.52278125 C7.64554054,4.37734375 6.93567568,2.249 3.97662162,1.80578125 C2.19891892,1.53928125 0.587837838,2.87096875 0.345,4.49678125 C0.087972973,6.22090625 1.25432432,7.86784375 3.03202703,8.13475 C4.61513514,8.372 5.7227027,7.95925 6.55905405,7.54609375 C7.28554054,7.187375 7.80810811,6.82825 8.26013514,6.8956875 C8.65459459,6.955 8.8572973,6.98425 8.95256757,7.60621875 C9.36648649,10.2972188 10.8478378,12.5409375 12.032027,12.7184688 C12.6239189,12.8074375 14.2013514,8.99965625 14.5556757,6.62634375 C14.9063514,4.2778125 14.5131081,0.1495 13.9212162,0.0609375 C13.8644595,0.05240625 13.8060811,0.04834375 13.7456757,0.04834375 C12.5412162,0.0479375 10.6090541,1.7119375 9.48405405,4.04625 Z" id="path-1"></path>
        <path d="M9.48405405,4.04625 C9.21081081,4.613375 9.00891892,4.5816875 8.61405405,4.52278125 C7.64554054,4.37734375 6.93567568,2.249 3.97662162,1.80578125 C2.19891892,1.53928125 0.587837838,2.87096875 0.345,4.49678125 C0.087972973,6.22090625 1.25432432,7.86784375 3.03202703,8.13475 C4.61513514,8.372 5.7227027,7.95925 6.55905405,7.54609375 C7.28554054,7.187375 7.80810811,6.82825 8.26013514,6.8956875 C8.65459459,6.955 8.8572973,6.98425 8.95256757,7.60621875 C9.36648649,10.2972187 10.8478378,12.5409375 12.032027,12.7184687 C12.6239189,12.8074375 14.2013514,8.99965625 14.5556757,6.62634375 C14.9063514,4.2778125 14.5131081,0.1495 13.9212162,0.0609375 C13.8644595,0.05240625 13.8060811,0.0479375 13.7456757,0.0479375 C12.5416216,0.0479375 10.6090541,1.7119375 9.48405405,4.04625 Z" id="path-3"></path>
    </defs>
    <g id="Page-1" stroke="none" stroke-width="1" fill="none" fill-rule="evenodd">
        <g id="start-platsbanken-web-1170" transform="translate(-1003.000000, -641.000000)">
            <g id="nyckel" transform="translate(1003.000000, 642.000000)">
                <g id="Group-7">
                    <path d="M53.6800196,42.456589 C52.1154978,42.2033338 51.0089664,40.9862786 51.2082925,39.7385131 C51.4080365,38.4907476 52.8375848,37.6847062 54.4021065,37.9379614 C55.9666283,38.1912166 57.0731597,39.4082717 56.8738336,40.6560372 C56.6745075,41.9038028 55.2445413,42.7098441 53.6800196,42.456589 M54.84965,34.1891959 L55.4254809,30.5851476 C55.707964,28.8186717 54.1263094,27.0795407 51.9111572,26.7206924 L7.94157754,19.6000993 C5.72642536,19.241251 3.68301957,20.39352 3.40053647,22.1604166 L0.330831159,41.3741545 C0.0483480676,43.141051 1.62958478,44.8801821 3.84515483,45.2390303 L47.8143167,52.3596234 C50.0298867,52.7184717 52.0732925,51.5662028 52.3553577,49.7993062 L52.9286814,46.2116648 C56.3439688,46.0109959 59.1491597,43.9908441 59.60715,41.1263683 C60.0647225,38.2618924 58.030092,35.4579959 54.84965,34.1891959" id="Fill-1" fill="#1EA3C2"></path>
                    <path d="M86.7000783,44.6527572 C83.2183488,45.8214331 79.4921628,43.9203366 78.3864671,40.4117848 C77.3041725,36.9776952 79.1311193,33.2322952 82.4515493,32.0766607 C85.7920372,30.9142952 89.7898415,32.8776538 90.916013,36.2339159 C92.0526314,39.6204676 90.1049188,43.5101641 86.7000783,44.6527572 Z M169.274984,4.68597793 C167.174747,3.43737103 164.896078,2.52237103 162.804617,1.27250207 C160.721513,0.0276813793 158.746221,-0.0198565517 156.448329,0.755895172 C142.85404,5.34393655 129.19874,9.75066069 115.617404,14.3769848 C112.984796,15.2738952 111.067588,15.00844 108.708687,13.4249641 C103.32939,9.81418483 97.3951556,8.09735034 90.8834188,10.085109 C90.3326604,10.4426952 89.6565396,10.67744 88.980001,10.9117641 C87.2123923,11.48264 85.4447836,12.0535159 83.676757,12.6243917 C81.31117,13.1775986 79.3024478,14.5090814 77.5766266,16.2751366 C67.9513077,26.1243228 67.5802353,37.609571 73.6920662,48.845771 C78.333815,57.3794607 90.2591145,62.7596607 99.5033319,60.2603434 C104.121262,59.0117366 108.763846,57.7214814 112.353805,54.1287917 C115.528815,50.9517434 117.976723,47.3519021 119.260433,43.0389917 C119.776926,41.3036469 120.68831,40.2817917 122.420817,39.8123021 C124.233139,39.3209366 125.987375,38.6162814 127.785907,38.0714883 C129.147759,37.6587917 130.068755,36.8455986 130.685537,35.5603917 C131.653752,33.5415021 132.719332,31.569309 133.677518,29.545371 C134.24917,28.3379917 134.985047,28.0149021 136.157602,28.6951572 C137.552049,29.5037228 139.113228,29.9273572 140.576206,30.5785848 C141.738315,31.0960331 142.586182,30.7834607 143.194189,29.6753641 C143.901233,28.386371 144.558549,27.0708745 145.191211,25.7457021 C145.760774,24.5534676 146.513366,24.2488883 147.699293,24.8925434 C148.985093,25.5904676 150.32647,26.1878469 151.607255,26.8937641 C153.110767,27.7221021 154.076892,27.3094055 154.775578,25.799971 C155.333441,24.5942745 156.021262,23.4462124 156.54653,22.2270538 C157.182117,20.7529572 158.034581,20.3768607 159.480426,21.2043572 C160.869441,21.9994607 162.311107,22.7100055 163.774921,23.36544 C164.825457,23.835771 165.692129,23.6498262 166.255424,22.5972607 C168.696228,18.0365641 170.91347,13.3723779 172.62759,8.47891586 C172.540672,8.21261931 172.453337,7.94632276 172.366419,7.68002621 C171.696984,6.30395034 170.540726,5.43817103 169.274984,4.68597793 Z" id="Stroke-3" stroke="#555A5E" stroke-width="1.5" stroke-linecap="round" stroke-linejoin="round"></path>
                    <path d="M26.0119708,34.9730248 C25.0136688,34.8228386 24.2819708,32.6188455 21.2319056,32.1594524 C19.3995263,31.88348 17.7384756,33.2629214 17.4885867,34.9461007 C17.2232365,36.7315076 18.425879,38.4374041 20.2582582,38.7133766 C23.3083234,39.172349 24.6446857,37.2796662 25.6467486,37.4306938 C26.0537582,37.4921145 26.2622775,37.5219834 26.3608959,38.16648 C26.7875457,40.9527076 28.3144587,43.2765972 29.5350698,43.4604386 C30.1451664,43.552149 31.7711157,39.6090248 32.13592,37.1513559 C32.4973814,34.719349 32.0924611,30.4443007 31.4819466,30.3525903 C30.2613355,30.168749 28.1264152,31.9411145 26.9087292,34.4799766 C26.6270819,35.0668386 26.4189804,35.0344455 26.0119708,34.9730248" id="Fill-5" fill="#13769D"></path>
                </g>
                <g id="Group-10" transform="translate(17.000000, 30.000000)">
                    <mask id="mask-2" fill="white">
                        <use xlink:href="#path-1"></use>
                    </mask>
                    <g id="Clip-9"></g>
                    <polygon id="Fill-8" fill="#13769D" mask="url(#mask-2)" points="29.3057027 253.90625 118.863405 -346.153844 -41.7934865 -370.231469 -131.351189 229.828625"></polygon>
                </g>
                <g id="Group-13" transform="translate(17.000000, 30.000000)">
                    <mask id="mask-4" fill="white">
                        <use xlink:href="#path-3"></use>
                    </mask>
                    <g id="Clip-12"></g>
                    <polygon id="Fill-11" fill="#13769D" mask="url(#mask-4)" points="15.2895 15.2288094 17.7689595 -1.38478437 -0.388743243 -4.10584687 -2.86860811 12.5073406"></polygon>
                </g>
                <g id="Group-24" transform="translate(53.000000, 35.000000)">
                    <path d="M2.7979875,0.424418919 C2.8186125,0.421986486 2.8392375,0.419554054 2.8598625,0.417121622 C2.5306875,0.81077027 2.124375,1.27333784 2.071575,1.79671622 C2.0427,2.08252703 2.150775,2.27387838 2.1945,2.53536486 C2.6173125,2.59658108 2.9502,2.94604054 3.2649375,3.20185135 C3.5429625,3.42806757 3.87255,3.66401351 4.0099125,3.99482432 C4.074675,4.1505 4.1006625,4.35766216 4.1988375,4.47077027 C4.2273,4.50360811 4.4966625,4.67428378 4.54575,4.68806757 C4.807275,4.76022973 4.99785,4.35239189 5.142225,4.20685135 C5.4322125,3.91333784 5.5939125,3.53955405 5.701575,3.15360811 C5.8092375,2.76968919 5.7886125,2.39671622 5.7886125,1.99536486 C5.7886125,1.57171622 5.8075875,1.32482432 5.5048125,1.00698649 C5.272575,0.763337838 5.0848875,0.544418919 4.7829375,0.399283784 C4.635675,0.328337838 4.505325,0.257391892 4.3473375,0.196581081 C4.1443875,0.118337838 3.8317125,-0.0786891892 2.7979875,0.424418919" id="Fill-14" fill="#1EA3C2"></path>
                    <path d="M2.79415125,3.74724324 C2.32885125,3.61427027 1.71876375,4.41210811 1.43785125,4.63710811 C0.85993875,5.10048649 0.55840125,5.44467568 0.31626375,6.16710811 C0.06422625,6.91913514 -0.05333625,7.79643243 0.15703875,8.57927027 C0.71721375,10.659 2.47157625,11.661973 4.20201375,12.7144054 C5.95142625,13.7785946 7.93307625,14.4685946 10.0083637,14.5002162 C10.9558762,14.5148108 11.8675012,14.5602162 12.8092387,14.6567027 C13.7848012,14.7564324 14.4761512,14.6202162 15.3840637,14.3465676 C16.5287512,14.0011622 17.7283012,13.8921081 18.9031012,13.6849459 C20.1154387,13.4717027 21.2576512,13.1181892 22.4324512,12.7691351 C23.4624637,12.4630541 24.5279512,12.2692703 25.5121762,11.8326486 C26.4023512,11.4373784 27.3036637,11.0538649 28.1814637,10.6346757 C29.2114762,10.1425135 30.2988262,9.63089189 31.0652512,8.76413514 C31.6262512,8.12967568 32.1497137,7.43602703 32.5090012,6.67062162 C32.7482512,6.16062162 32.6966887,5.77021622 32.7004012,5.21116216 C32.7037012,4.6812973 32.7230887,4.29008108 32.3732887,3.84818919 C32.1975637,3.62643243 32.0144137,3.46832432 31.8754012,3.22305405 C31.6811137,2.8817027 31.5874762,2.57075676 31.2562387,2.31332432 C31.0829887,2.17872973 30.8482762,2.01291892 30.6593512,1.91845946 C30.3013012,1.73886486 29.9614012,1.77981081 29.5847887,1.67116216 C29.1095887,1.53413514 28.6587262,1.56697297 28.1690887,1.47251351 C27.5825137,1.35940541 27.1168012,1.32008108 26.5021762,1.31481081 C26.2715887,1.31278378 26.0315137,1.29210811 25.8087637,1.33224324 C25.5781762,1.37359459 25.5942637,1.6067027 25.2754012,1.51751351" id="Stroke-16" stroke="#555A5E" stroke-width="1.5" stroke-linecap="round" stroke-linejoin="round"></path>
                    <path d="M6.09415125,1.72021622 C6.72981375,1.15427027 7.56677625,1.14656757 8.34928875,0.920756757 C9.59050125,0.562378378 10.7719012,0.286702703 12.0506513,0.116432432 C13.0484888,-0.0165405405 14.1560513,0.0985945946 15.1691513,0.0985945946" id="Stroke-18" stroke="#555A5E" stroke-width="1.5" stroke-linecap="round" stroke-linejoin="round"></path>
                    <path d="M3.61915125,4.15264865 C3.28708875,4.269 2.90263875,4.54994595 2.64936375,4.8012973 C2.18695125,5.25940541 1.62883875,5.58372973 1.54922625,6.279 C1.48033875,6.88386486 1.59336375,7.37318919 1.86643875,7.90183784 C2.17003875,8.49048649 2.52190125,8.76575676 3.00040125,9.22548649 C3.44342625,9.65156757 4.05970125,10.1538649 4.60461375,10.4518378 C5.30421375,10.8341351 6.21212625,11.0380541 6.97483875,11.3027838 C8.55718875,11.8512973 10.3111388,12.0572432 11.9801138,12.0580541 C12.4676888,12.0584595 12.9994013,11.9830541 13.4795512,12.0475135 C13.9539263,12.1111622 14.3618888,12.2595405 14.8556512,12.2684595 C16.1042887,12.2911622 17.2984762,12.2031892 18.5306137,12.0073784 C20.5283512,11.6903514 22.3359262,10.946027 24.2771512,10.436027 C24.8224762,10.2929189 25.2168262,10.1048108 25.6928512,9.82305405 C26.1024637,9.58021622 26.4926887,9.50035135 26.9097262,9.30454054 C27.2599387,9.14035135 27.4595887,8.84035135 27.7957762,8.65791892 C28.1158762,8.484 28.4553637,8.32913514 28.7812387,8.15035135 C29.6491387,7.674 30.4201012,7.02535135 30.4312387,5.97697297 C30.4411387,4.98818919 30.4729012,4.12548649 29.4511387,3.69737838 C29.1797137,3.58386486 29.1067012,3.56359459 28.7812387,3.54981081 C28.4363887,3.53521622 28.1893012,3.37305405 27.8535262,3.33413514 C27.2908762,3.26967568 26.6684137,3.34183784 26.1004012,3.34183784" id="Stroke-20" stroke="#555A5E" stroke-width="1.5" stroke-linecap="round" stroke-linejoin="round"></path>
                    <path d="M6.91915125,2.93643243 C7.02763875,2.45278378 7.58905125,2.49737838 7.99247625,2.41954054 C9.26875125,2.17305405 10.6304138,1.54710811 11.9293763,1.50291892 C12.6665138,1.47818919 13.4143762,1.51751351 14.1527513,1.51751351 C14.5586512,1.51751351 15.1860638,1.41372973 15.5659763,1.56332432 C15.5960888,1.68859459 15.5325638,1.74089189 15.3754013,1.72021622" id="Stroke-22" stroke="#555A5E" stroke-width="1.5" stroke-linecap="round" stroke-linejoin="round"></path>
                </g>
            </g>
        </g>
    </g>
</svg>