<?xml version="1.0" encoding="UTF-8"?>
<svg width="233px" height="192px" viewBox="0 0 233 192" version="1.1" xmlns="http://www.w3.org/2000/svg" xmlns:xlink="http://www.w3.org/1999/xlink">
    <!-- Generator: sketchtool 46.2 (44496) - http://www.bohemiancoding.com/sketch -->
    <title>96C16A19-1541-4B34-B30D-2E590EFE82D9</title>
    <desc>Created with sketchtool.</desc>
    <defs>
        <polygon id="path-1" points="0.0224585106 0.489819355 86.6277883 0.489819355 86.6277883 55.1153457 0.0224585106 55.1153457 0.0224585106 0.489819355"></polygon>
    </defs>
    <g id="Page-1" stroke="none" stroke-width="1" fill="none" fill-rule="evenodd">
        <g id="start-platsbanken-web-1170-ny-illustration" transform="translate(-986.000000, -261.000000)">
            <g id="ill" transform="translate(986.000000, 261.000000)">
                <polygon id="Fill-1" fill="#F2F4F5" points="17.1236729 138 0 192 233 192 208.642534 138"></polygon>
                <g id="Group-71" transform="translate(4.000000, 0.000000)">
                    <path d="M92.8147457,67.96328 C92.5285809,68.3752832 91.6513707,68.548409 91.2148787,68.7136929 C90.2972191,69.061151 89.3294505,69.3392381 88.4220543,69.7524477 C87.2466048,70.287509 86.1436021,71.0644639 84.982642,71.6538155 C82.5333362,72.8976671 80.1154239,74.0685284 77.7910888,75.6085639 C75.6454559,77.0309703 73.7334638,78.8273768 71.6723521,80.3957639 C70.1231979,81.5744671 68.1134027,83.2580703 67.1993654,85.1220381 C65.7896713,87.9958058 64.2845888,90.9051639 63.4599027,94.0642574 C63.0735197,95.5421606 62.5549213,96.9591381 62.1751793,98.4412639 C61.6734851,100.401748 61.3836979,102.420141 60.6815676,104.309445 C59.9269133,106.340506 59.2169346,108.427064 58.6766021,110.547403 C58.1410995,112.650248 58.146533,114.890628 57.7046074,117.027254 C57.3206394,118.878554 56.8141154,120.565174 56.5684,122.435777 C56.4905197,123.026335 56.6022085,123.600003 56.4579186,124.17548 C56.306384,124.781119 56.17115,125.099019 56.1783947,125.872957 C56.1892617,126.909299 56.0002963,127.65187 55.7406952,128.600141 C55.5831234,129.178032 55.4545303,129.368048 55.4611713,130.096141 C55.4672085,130.765119 55.4412484,131.437715 55.4575489,132.105486 C55.4829053,133.139415 55.4816979,133.083315 56.1844319,133.512209 C56.8545649,133.921799 57.4274984,134.250557 58.2389027,134.437557 C59.3835622,134.702374 60.5469372,134.876103 61.7181606,134.68488 C62.5362059,134.552774 63.6633574,134.500896 64.2670809,133.919386 C65.0603734,133.155099 65.2070782,131.775522 65.4002697,130.707209 C65.8168388,128.407109 66.5926234,126.194477 66.8848255,123.869645 C67.5302059,118.736796 68.6150968,112.88249 71.4169771,108.565203 C71.6795968,108.158628 72.4831527,106.715712 73.0868761,107.004054 C73.412283,107.16029 73.5795144,108.20568 73.6712803,108.567012 C74.2454213,110.817648 74.4832883,113.213057 74.8569931,115.513157 C75.472791,119.300209 76.2727245,123.120438 76.5975277,126.956351 C76.7768335,129.07307 76.6566926,131.251319 76.6524665,133.378293 C76.6500516,134.643257 76.4550489,135.97699 76.9120676,137.160519 C77.0153043,137.425938 77.2260037,137.655767 77.299658,137.934457 C77.3316553,138.053293 77.3002617,138.658328 77.3527856,138.770528 C77.6540436,139.410551 78.1032138,139.019661 78.7063335,139.225964 C80.1721739,139.725435 81.6029984,140.189315 83.2173548,140.350377 C87.1669133,140.74368 91.0355729,141.337254 95.0135064,141.475393 C105.180812,141.828883 115.381323,141.523048 125.554062,141.555622 C127.626041,141.562257 129.554334,141.507364 131.609408,141.203338 C132.543368,141.065803 133.246706,141.118886 133.774964,140.347361 C134.111841,139.855732 134.11969,139.445538 134.128142,138.789228 C134.149876,137.113467 134.11969,135.43288 134.11969,133.756515 C134.11969,131.969157 134.129349,130.182403 134.111238,128.395648 C134.090107,126.276515 134.473472,124.196593 134.492187,122.076254 C134.505469,120.682803 134.308052,119.186199 134.559201,117.809638 C134.792841,116.522354 134.839932,115.344857 134.838121,114.031635 C134.835706,112.075977 134.84778,110.120319 134.838724,108.164661 C134.83631,107.519812 134.628025,106.823086 135.173187,106.54138 C136.058849,106.082325 137.27173,106.931667 137.765576,107.592803 C139.586405,110.027422 140.359775,113.232964 141.311847,116.156799 C142.271163,119.104161 143.553472,121.935099 144.419211,124.916845 C145.083911,127.209103 145.003012,129.605719 145.298232,131.959506 C145.40328,132.807641 145.414751,134.149215 145.776381,134.938235 C146.349315,136.189325 148.948344,135.479932 149.881097,135.151174 C151.575748,134.555186 153.338621,134.096735 154.980145,133.343306 C155.466142,133.120715 156.277546,132.861932 156.584841,132.321441 C157.502501,130.706606 156.261246,127.806899 155.783097,126.313312 C155.268724,124.708128 155.035084,122.96179 154.610062,121.322222 C154.137951,119.50048 153.435216,117.78008 152.793459,116.031932 C151.687437,113.017612 150.88207,109.903761 150.096022,106.770606 C149.487469,104.345638 149.124631,101.929115 148.351262,99.5596445 C147.747538,97.7083445 146.976584,95.8166284 146.53828,93.913451 C146.144653,92.2008929 146.153709,90.3345123 145.595868,88.6708155 C145.132209,87.2882219 144.265865,85.5575671 143.427897,84.4373768 C142.612871,83.3485542 141.686155,81.95088 140.750988,81.0194994 C139.75907,80.0290026 138.44899,79.4595574 137.353232,78.6216768 C135.536629,77.2318445 133.28957,76.2956381 131.245363,75.4016574 C130.668203,75.1489058 130.066895,74.9492381 129.521732,74.6144477 C128.760437,74.147551 128.148262,73.4417768 127.34048,73.0587284 C126.849653,72.8264865 126.340714,72.7613381 125.844453,72.550209 C125.135078,72.2479929 124.528336,71.7262026 123.840091,71.36668 C122.33682,70.58128 120.739972,70.1837542 119.217381,69.6215477 C117.796216,69.0967413 116.376259,68.8536413 114.947849,68.4150961 C113.151772,67.8637477 110.412076,68.2841961 108.977025,66.7568284" id="Fill-2" fill="#F89F28"></path>
                    <g id="Group-6" transform="translate(60.976064, 0.000000)">
                        <mask id="mask-2" fill="white">
                            <use xlink:href="#path-1"></use>
                        </mask>
                        <g id="Clip-5"></g>
                        <path d="M31.7396713,2.48088677 C28.2453202,2.3855771 27.1187723,3.88700613 24.9779691,6.56894806 C20.270134,12.4678932 19.7243681,20.1451481 18.1558947,27.2692448 C16.9581074,32.7085319 16.2420915,38.7311384 11.5523681,42.3414448 C7.94451702,45.1199029 4.26059681,45.1090448 0.0224585106,44.0582255 C0.714325532,43.9979029 0.941929255,44.5046126 1.45509415,44.8152739 C2.83279096,45.6483287 4.15615266,46.4156319 5.67934681,46.9995545 C9.97906489,48.6475674 14.3584745,49.0076932 18.4330037,46.7106094 C18.8900223,47.8265771 15.7844691,49.6193642 15.1572005,50.1357255 C14.1139665,50.9965287 13.1220489,51.8325997 11.9152059,52.4557319 C11.253525,52.7971577 10.1209399,52.6198094 10.026759,53.6362448 C13.6146872,54.3329706 17.3698468,55.8120803 21.0809346,54.7341158 C22.9639479,54.18699 24.3162883,52.5082126 26.196283,52.0382997 C27.0988495,51.8132965 28.0962005,51.9417835 29.022916,51.9454029 C31.6195303,51.956261 34.2191633,51.8880965 36.8151739,51.9230835 C42.2082351,51.9948674 47.4038787,53.2031287 52.8174665,53.1446158 C54.3020223,53.1289319 55.3537085,53.4751835 56.7772883,53.7038061 C58.1622298,53.9257932 59.6866314,53.7544771 61.0963255,53.7550803 C65.3906101,53.75689 69.217009,53.4106384 73.4412617,52.6988319 C75.9424878,52.2777803 78.53065,51.9128287 80.9419213,51.2836642 C82.0606207,50.9917029 86.5619824,49.9650126 86.6277883,49.0493158 C84.6536128,48.4539319 82.4476074,48.5039997 80.3726101,48.2898545 C78.4829559,48.0956158 76.555267,47.4616255 74.7145144,46.9718061 C73.5197457,46.6533029 72.4119133,45.8244706 71.1519426,45.9010803 C73.6036633,45.9758803 76.1085117,46.0162965 78.5560064,45.9559739 C80.5132777,45.9077158 83.3544,45.0921545 84.6511979,43.4712868 C75.1479878,43.9617094 65.4793574,38.7824126 63.8571527,28.8575384 C63.3023309,25.4643932 63.0692936,22.0664223 62.175783,18.7167094 C61.6940117,16.9100481 61.0377644,15.0316029 60.3495197,13.2882803 C59.7125915,11.6776674 59.4065037,9.77871258 58.5594798,8.2809029 C56.9354638,5.40954806 54.6636527,3.22285452 51.5085941,2.31741258 C49.7378734,1.80949645 48.0220915,1.34621903 46.1837537,1.25875129 C44.7305915,1.1887771 43.4235303,0.731531935 41.9691606,0.639841613 C39.5856606,0.490241613 36.5984372,0.333402903 34.2885915,0.80572871 C32.4261048,1.18636419 30.1235037,2.88987387 31.7396713,2.48088677" id="Fill-4" fill="#1EA3C2" mask="url(#mask-2)"></path>
                    </g>
                    <path d="M88.4896713,34.4518545 C88.2270516,33.2834061 87.4005543,33.29909 86.4050144,33.2405771 C84.3909931,33.1223448 83.5192165,32.9341384 82.8847032,34.9724384 C81.9362537,38.0223481 82.4596819,40.223519 84.8594824,42.3625577 C87.1029186,44.3622513 88.5331394,44.7513319 91.5082883,44.7066932" id="Fill-7" fill="#8DD5EA"></path>
                    <path d="M115.149553,35.0550803 C114.81328,33.9511771 116.370282,32.9262965 117.263793,32.6723384 C118.686769,32.2675739 119.65333,32.414761 119.991415,33.7484932 C120.572801,36.04799 120.701394,38.5531868 120.638003,40.9202448 C120.590912,42.6647739 119.368373,47.2559255 116.960724,47.1195965" id="Fill-9" fill="#8DD5EA"></path>
                    <path d="M77.2229247,45.0406994 C76.7598689,45.1058477 76.7628875,45.4629574 76.4875896,45.7669832 C75.6303024,46.714651 74.9118715,47.7938219 74.0093051,48.7016768 C72.3255205,50.3955348 70.3066694,51.1501703 67.9883715,51.4958187 C67.3719699,51.5881123 67.3804221,51.3226929 67.1347066,51.8468961 C67.0308662,52.06828 67.092446,52.7517348 67.2240577,52.9966445 C67.3701588,53.2680961 68.2214088,53.7693768 68.489462,54.0384155 C69.5182066,55.0705348 70.6646774,55.7171929 71.9047253,56.4302058 C75.1756987,58.3080477 79.0612625,58.9160994 82.7777838,59.104909 C84.1584992,59.1760897 85.4462412,59.524151 86.8704247,59.5169123 C88.5391162,59.5084671 90.263954,59.411951 91.9278157,59.5036413 C93.0441003,59.5639639 94.0323955,60.1020413 95.1867146,59.9343445 C96.0101934,59.815509 96.4973981,59.51088 97.1844354,59.1205929 C98.4528582,58.4003413 99.2153609,57.6306252 99.5588795,56.3011155 C100.032802,54.467309 97.7108822,53.28378 96.2939434,52.2938865 C95.4873689,51.7304735 94.8208582,51.07718 94.0613742,50.4691284 C93.1008503,49.7012219 91.9417013,49.2409606 90.8924301,48.6105897 C88.9218769,47.4282671 87.2749194,45.6740865 85.2723689,44.638951" id="Fill-11" fill="#1EA3C2"></path>
                    <path d="M108.616542,49.0624058 C107.762877,49.0207832 107.452563,49.9998187 107.033579,50.5463413 C106.017512,51.8716284 104.8318,53.053951 103.838071,54.4039703 C102.904111,55.6725542 102.432603,56.6612413 102.523161,58.2543606 C102.599231,59.6025703 103.015196,59.8897058 104.296297,60.440451 C108.468026,62.2344445 113.405276,61.9292123 117.83238,61.9310219 C120.609507,61.9322284 123.516435,62.2163477 126.24285,61.6487123 C127.353701,61.4170735 128.858784,61.1902606 129.865794,60.6545961 C130.566717,60.2818026 131.270055,59.5808542 131.890079,59.094051 C133.108393,58.1373348 134.545858,57.0865155 135.500949,55.8782542 C136.573765,54.5203929 138.049265,52.1466994 137.526441,50.3370219 C137.414752,50.3147026 137.30427,50.29178 137.192582,50.2688574" id="Fill-13" fill="#1EA3C2"></path>
                    <path d="M113.107882,70.1765155 C112.363491,69.640851 111.617289,69.5509703 110.978549,68.7155026 C109.479504,66.7550187 109.619568,64.5707381 109.619568,62.2000606 C109.619568,59.767251 109.006789,57.4116542 111.415645,56.1527219 C111.956581,55.8704123 112.650259,55.7618316 113.329448,55.5796574 C114.726464,53.6698445 116.122876,51.7684768 117.315834,49.7271606 C117.367754,49.5854026 117.420278,49.4454542 117.467972,49.3024897 C117.46435,48.0266671 117.467972,46.7508445 117.467972,45.4756252 C117.467972,41.6077413 117.669012,37.9280639 116.696414,34.1814284 C115.952023,31.3106768 115.867501,28.3596961 114.901544,25.5082477 C114.280916,23.6780606 113.196025,22.1645671 112.170903,20.5485252 C111.202531,19.0211574 110.393541,17.9281123 108.998336,16.7928413 C107.763118,15.7878671 106.807424,14.5355703 105.391693,13.7767123 C103.569656,12.8012961 102.057328,11.5037574 99.9310146,11.5194413 C98.6523285,11.5284897 97.5432886,11.8307058 96.3376529,12.2668381 C93.6480652,13.2386348 91.3515013,16.1522155 90.1682035,18.5904542 C89.0096582,20.9786252 87.9054481,23.3456832 87.4025465,25.9926381 C86.9557912,28.3415994 87.2920652,30.9650284 87.2842168,33.3501832 C87.2709348,37.1951445 87.8855253,40.8609477 87.8855253,44.7065123 C86.5760492,40.0284961 87.3035359,42.1041961 87.2818019,44.7065123 C87.2769721,45.2910381 87.2383338,45.9135671 87.2250519,46.5360961 C87.6349801,46.7876413 88.0014402,47.1212252 88.2809641,47.5404671 C89.684621,49.6433123 91.0689588,51.7811445 92.6392434,53.7663606 C93.0509827,54.2875477 93.334129,54.8817252 93.4440066,55.4873639 C93.9004215,55.8348219 94.2119428,56.2818123 94.394871,56.7722348 C94.4280758,56.7812832 94.4636955,56.7951574 94.4956928,56.8023961 C96.3642168,57.2174155 96.987863,56.1231639 96.9395652,58.5831187 C96.9117939,59.9874284 96.9317168,61.3983735 96.9413763,62.8032865 C96.9534508,64.6021058 96.7409402,64.9923929 95.7321184,66.4226413 C94.7450306,67.8221252 93.6136529,68.2172381 92.0995146,68.9869542 C90.7435519,69.6770445 90.7187992,70.3393865 90.8902566,71.8679606 C91.2808657,75.3582252 95.3052859,76.3547542 98.1820279,77.1268832 C102.572908,78.3061897 106.950507,77.804909 111.274977,76.5103865 C113.482794,75.8486477 116.84493,75.3117768 115.051267,72.4573123 C114.568892,71.690009 113.904193,70.7489768 113.107882,70.1765155" id="Fill-15" fill="#8DD5EA"></path>
                    <path d="M97.0514351,10.5160355 C97.8350681,15.3701935 99.8460707,19.9613452 103.351289,23.4636742 C106.009483,26.1196774 108.807741,27.1361129 112.389632,27.9486581 C114.711552,28.4752742 117.141539,28.9017548 119.371089,29.7565258 C118.822305,29.9549871 117.954151,29.8029742 117.316619,29.8379613 C118.788496,28.848671 118.434714,25.7607581 118.426262,24.2532968 C118.410565,21.5068097 117.062451,18.7187 115.536238,16.4855581 C113.138249,12.9753871 109.474855,11.0106806 105.906246,8.90723226" id="Fill-17" fill="#1EA3C2"></path>
                    <path d="M87.3854008,44.638951 C87.4258503,46.8437413 88.2324247,49.1058381 89.4984327,50.9281832 C89.7562226,51.2991671 90.1263051,51.5247735 90.4112625,51.8607703 C90.7741003,52.2896639 90.8453396,52.85368 91.1876508,53.2566348 C91.523321,53.6529542 92.0878024,54.0269542 92.5182572,54.2893574 C93.2771375,54.7520316 94.3662545,55.3944671 95.2265604,55.503651 C95.524196,55.541051 95.8659035,55.410151 96.1544832,55.4813316 C96.4279699,55.5476865 96.4533263,55.7515768 96.726813,55.8149155 C96.9954699,55.877651 97.3015577,55.8076768 97.5816854,55.8649832 C97.9082997,55.933751 98.1051136,56.1092897 98.5542838,56.1002413" id="Fill-19" fill="#8DD5EA"></path>
                    <path d="M86.4798157,42.8292735 C86.5631295,42.8461639 86.6464434,42.8636574 86.7297572,42.8805477 C86.8432572,43.1815574 86.7255311,43.4312929 86.7659806,43.7298897 C86.8179008,44.1147477 87.0485231,44.6178381 87.1451189,44.9785671 C87.5755737,46.6060703 88.3537731,48.1370574 89.0631481,49.6535671 C89.8528184,51.3401865 91.2444008,52.5647348 92.5170497,53.8628768 C93.4389354,54.803909 94.3686694,55.4493606 95.5356668,56.0332832 C95.9576694,56.243809 96.3965763,56.4000445 96.8101269,56.6202219 C97.2128104,56.8355735 97.7760843,57.4424187 98.2524221,57.3066929" id="Fill-21" fill="#8DD5EA"></path>
                    <path d="M87.0835391,42.5276606 C87.0835391,45.3851413 86.6953449,48.3397413 88.4425205,50.79668 C89.2038157,51.8674058 89.9065497,52.9459735 90.7885896,53.9280252 C91.0982997,54.2736735 91.5172838,54.3539026 91.8475205,54.6512929 C92.204321,54.972209 92.5224832,55.3878316 92.9004141,55.7226219 C94.0649965,56.7529316 95.4420896,57.7603187 96.8179753,58.4377413 C97.4235098,58.7357348 101.426196,60.6377058 101.271039,59.1163703" id="Fill-23" fill="#8DD5EA"></path>
                    <path d="M108.213858,60.6244348 C108.141411,59.9717445 109.624156,59.4451284 110.076345,59.0801768 C110.732592,58.5505445 111.256624,57.8441671 111.825935,57.2337026 C112.2093,56.8229058 112.682619,56.5104348 113.058739,56.1098929 C113.506701,55.6327413 113.742757,55.2110865 114.249885,54.8195929 C114.584348,54.560809 114.844552,54.3303768 115.089664,53.9865381 C115.654749,53.1914865 116.208967,52.3312865 116.782505,51.5760477 C117.181566,51.0512413 117.526895,50.3961381 117.72552,49.7663703 C117.917505,49.1553026 117.873433,48.4881348 117.873433,47.8058865 C117.873433,45.7494897 117.982103,44.3765477 116.364124,42.8292735" id="Fill-25" fill="#8DD5EA"></path>
                    <path d="M90.1021561,70.3761832 C89.9663184,71.1109123 90.4486934,71.6465768 90.8441322,72.2130058 C91.7829221,73.5557865 92.8297785,74.8267832 93.8862944,76.0772703 C96.3410338,78.9818026 99.3735364,81.5268123 101.408688,84.713051 C101.7673,85.2758606 102.628813,86.7416994 103.373808,86.893109 C104.48164,87.1187155 106.115919,85.0424123 106.798127,84.4578865 C109.385685,82.2392219 111.769789,79.7509155 114.232981,77.3971284 C114.809536,76.8463832 115.313042,76.2546187 115.768853,75.5946897 C115.984986,75.2816155 116.6521,74.54568 116.659949,74.1825381 C116.677457,73.4755574 115.819566,72.9097316 115.237576,72.5429703 C114.650153,72.1731929 113.991491,72.0163542 113.436669,71.6031445 C112.858302,71.1730445 112.34876,70.4871768 111.836199,69.9744348" id="Fill-27" fill="#8DD5EA"></path>
                    <path d="M55.0861987,131.101115 C54.1196375,131.063715 54.2657386,132.058435 54.2784168,132.706299 C54.3327519,135.345412 53.9994965,138.070183 54.6376322,140.664657 C55.7273529,145.095954 58.9518396,149.107406 61.5267199,152.806386 C63.6892572,155.914206 66.0341189,158.92189 68.8474699,161.466296 C70.242071,162.728245 72.3846854,165.202074 74.4053476,165.293161 C75.0404646,165.321512 75.7963263,165.358912 76.4272173,165.291954 C77.2905418,165.199661 77.4028343,164.983103 77.7807652,164.061374 C78.1327359,163.20419 78.5004035,162.141306 78.7521561,161.253961 C78.9230098,160.653148 78.9127465,160.038461 78.6223556,159.51848 C77.8785684,158.186557 76.4175577,157.022935 75.5324992,155.728412 C73.6869168,153.02777 72.9105285,150.096093 71.5503396,147.187941 C70.5240098,144.994612 69.1897811,142.757851 67.9461109,140.680945 C67.0230178,139.140306 66.003329,137.832512 65.3356109,136.148306 C64.8846295,135.014241 64.3352412,134.026157 63.5286668,133.092364 C63.0010125,132.481296 62.4558503,131.950457 62.3308795,131.101115" id="Fill-29" fill="#F89F28"></path>
                    <polygon id="Fill-31" fill="#E8EBEE" points="140.192906 153.219596 77.2227436 153.219596 71.5875894 138.339825 140.192906 138.339825"></polygon>
                    <polygon id="Fill-33" fill="#FFFFFF" points="135.529988 186.669794 80.8930197 186.669794 87.0455649 143.989759 126.51036 144.103165"></polygon>
                    <path d="M83.0903314,146.897548 C82.3743154,146.282861 81.3045176,146.222539 80.5172622,146.810081 C79.7306106,147.398829 79.4854989,148.441806 79.8730894,149.3008 L79.8326399,149.330961 L95.9943154,170.928255 L100.464887,173.854503 L99.2918527,168.464681 L83.1307809,146.867387 L83.0903314,146.897548 Z" id="Fill-35" fill="#66B145"></path>
                    <path d="M77.6685934,158.566771 C78.863362,158.251887 79.7520428,157.694506 80.9220588,157.3193 C83.2838247,156.561045 85.5495987,155.814251 87.9729444,155.221884 C88.7390694,155.035487 89.8571652,154.484742 90.5623141,154.881061 C91.2203726,155.249632 91.5095561,156.155677 91.8216811,156.767951 C92.3384684,157.778355 93.0846705,158.382184 93.8791705,159.161551 C94.4327848,159.705058 94.7606066,160.753464 95.3673487,161.180548 C96.3272689,161.854955 97.5630907,162.306771 98.559838,163.005909 C99.2263487,163.474013 99.7491731,163.948751 100.214644,164.558613 C98.5622529,165.085832 97.1899896,167.554835 96.2276545,168.843929 C95.7048301,169.54548 95.0461678,169.8483 94.0838327,169.790993 C93.5845535,169.762038 93.0731997,169.499635 92.5757316,169.413977 C91.5385348,169.236025 90.472963,169.195006 89.4279178,169.035151 C88.2240934,168.850564 87.1856891,168.685884 86.0090322,168.951303 C85.127596,169.149161 84.2081253,169.512906 83.3158221,169.635964 C79.1664311,170.207822 76.9700854,165.961113 73.7323168,164.495877" id="Fill-37" fill="#8DD5EA"></path>
                    <path d="M145.040986,127.280886 C145.040986,129.732396 144.992084,132.14349 145.425558,134.568457 C145.559584,135.32068 145.65135,136.023438 145.644106,136.783503 C145.641087,137.079083 145.499816,137.889215 145.622975,138.160064 C145.884991,138.736145 147.699784,138.440564 148.325241,138.440564 L155.140675,138.440564 C155.596486,138.440564 156.054108,138.431515 156.510523,138.439357 C157.082853,138.449009 157.290534,138.578703 157.430598,138.001415 C157.641297,137.137596 157.45535,135.706745 157.430598,134.823622 C157.385922,133.168974 155.946042,131.961315 155.444348,130.415851 C155.258401,129.842183 155.167239,129.347538 154.918505,128.789554 C154.713842,128.331706 154.48322,127.774325 154.398699,127.280886" id="Fill-39" fill="#F89F27"></path>
                    <path d="M153.794975,128.185725 L153.794975,127.980025 C153.794372,128.683386 153.758752,129.39097 153.772637,130.093125 C153.788334,130.957548 154.017749,131.74717 154.210941,132.583845 C154.331082,133.101412 154.34859,134.075622 154.61785,134.51658 C155.004837,135.15057 156.367441,134.92979 156.816007,134.371203 C157.340039,133.718512 157.109417,132.64658 157.115454,131.80508 C157.122699,130.676445 156.486978,129.884409 156.511731,128.788951" id="Fill-41" fill="#F89F28"></path>
                    <path d="M182.471837,145.339959 C181.050672,145.89372 180.449364,145.722404 179.021558,145.881656 C177.469385,146.055385 175.895478,146.705662 174.382547,147.018133 C171.325895,147.650917 168.287356,148.221569 165.286247,149.081769 C161.623457,150.130778 158.086845,151.566456 154.379983,152.465865 C150.889255,153.312795 147.365925,154.273733 143.780411,154.481243 C142.445579,154.559059 140.974909,154.905311 139.659999,155.16892 C139.6763,155.786624 144.032768,158.308107 144.202414,158.44323 C146.524334,160.281862 148.76113,162.208565 151.252092,163.851149 C153.7503,165.497956 156.448943,166.850991 158.946547,168.499004 C161.906603,170.452249 164.142191,173.129969 166.992973,175.149569 C167.932366,175.814927 169.026917,176.080346 169.959066,176.612995 C170.861632,177.128149 170.693797,177.454495 171.904866,177.081701 C173.559672,176.571975 175.113656,175.741333 176.827023,175.252117 C183.411834,173.371862 190.121012,171.773314 196.649677,169.734411 C198.960731,169.012349 201.3068,168.021853 203.724108,167.644233 C204.906802,167.459043 206.047236,167.641217 207.224497,167.627343" id="Fill-43" fill="#60AF59"></path>
                    <path d="M176.307217,122.492782 C174.980837,131.525485 173.903191,140.532249 173.187778,149.645182 C172.701781,155.834882 172.58647,162.03182 172.238725,168.228156 C172.110132,170.518001 171.734013,172.773462 171.360308,175.030733 C171.2293,175.820959 170.820579,176.882033 171.074747,177.70423 C171.79197,177.83332 172.099265,177.373059 172.672199,177.175804 C173.927943,176.745704 175.302018,176.564736 176.679111,176.329478 C185.707794,174.78703 194.185882,172.207033 203.421039,171.165865 C207.178614,170.741798 211.01588,170.575911 214.816922,170.347891 C216.54659,170.244136 220.735223,170.435359 222.127409,169.664436 C222.925531,169.222875 222.9853,168.775885 222.987715,167.822788 C223.004619,160.76384 222.18114,153.405691 223.309499,146.393795 C224.230781,140.668578 225.027092,134.922853 225.86989,129.186175 C225.999691,128.304259 227.091826,125.28632 226.446446,124.544956 C226.08059,124.125714 224.062946,124.080472 223.454393,124.006275 C219.927441,123.574969 216.259217,123.646149 212.720794,123.529727 C202.701401,123.197953 192.442329,122.490972 182.479685,122.864972 C181.067576,122.918056 179.655467,123.132804 178.2826,123.199159 C177.073342,123.258275 175.803712,122.641778 176.307217,122.492782" id="Fill-45" fill="#A6D06F"></path>
                    <path d="M10.6305428,48.3296071 C10.518854,48.3495135 10.4077689,48.3700232 10.2966838,48.3905329 C9.69899761,49.8678329 10.7223088,52.0370329 11.1237848,53.3936877 C11.7601093,55.5466006 11.8760242,58.0668781 13.1359949,59.9567845 C13.5936173,59.9037006 13.7632636,59.6750781 14.179229,59.4856652 C14.9966705,59.1146813 15.9614205,59.0953781 16.835612,58.9421587 C19.1490801,58.5355845 21.6581545,58.5211071 23.9136652,57.8907361 C23.7410003,57.5336265 23.4723434,57.452191 23.1070907,57.17712" id="Stroke-47" stroke="#555A5E" stroke-width="1.5" stroke-linecap="round" stroke-linejoin="round"></path>
                    <path d="M9.8251758,50.7425103 C9.49916516,49.7188361 11.1805348,49.62232 11.8464418,49.4751329 C14.0150162,48.9967748 16.2192104,48.5708974 18.3382795,47.8989039 C19.0355801,47.67752 19.9309019,47.0742942 20.6571811,47.1551265 C20.694612,48.270491 21.368971,49.6910877 21.698604,50.7207942 C22.1646785,52.1757748 22.9054471,53.4449619 23.5496199,54.8275555 C23.9245322,55.6310523 24.1044418,56.8061361 24.6339072,57.4877813 C24.6616785,57.3840265 24.6894497,57.2802716 24.717221,57.17712" id="Stroke-49" stroke="#555A5E" stroke-width="1.5" stroke-linecap="round" stroke-linejoin="round"></path>
                    <path d="M12.6427529,50.3401587 C12.7176146,50.8299781 13.9769816,51.6497619 14.3120481,52.0786555 C15.2550641,53.2839006 16.4770003,54.6031555 17.1863753,55.9447297 C17.5679285,55.8536426 17.4652955,55.6364813 17.6826359,55.3264232 C18.6171997,53.9836426 19.3060481,52.395349 20.2581199,51.0272329 C21.7221492,48.9231813 24.4853912,44.5395394 27.5347981,44.7102523" id="Stroke-51" stroke="#555A5E" stroke-width="1.5" stroke-linecap="round" stroke-linejoin="round"></path>
                    <path d="M5.59090133,28.2976845 C5.4792125,28.3181942 5.36873112,28.3381006 5.25704229,28.3586103 C4.65995984,29.8359103 5.68327101,32.0051103 6.08414335,33.3623684 C6.72046782,35.5152813 6.83638271,38.0349555 8.09635346,39.9248619 C8.55457952,39.8717781 8.72362207,39.6437587 9.14019122,39.4543458 C9.95702899,39.0827587 10.9223827,39.0634555 11.7959705,38.9102361 C14.1100423,38.5042652 16.6191168,38.4891845 18.8746274,37.8588135 C18.7013588,37.5017039 18.4333056,37.4202684 18.0680529,37.1451974" id="Stroke-53" stroke="#555A5E" stroke-width="1.5" stroke-linecap="round" stroke-linejoin="round"></path>
                    <path d="M4.78613803,30.7105877 C4.45952367,29.6875168 6.14089335,29.5903974 6.80680027,29.4432103 C8.97537473,28.9648523 11.1801726,28.5389748 13.298638,27.8669813 C13.9965423,27.6455974 14.8918641,27.0423716 15.6175396,27.1238071 C15.6549705,28.2391716 16.3293295,29.6597684 16.6595662,30.6888716 C17.1256407,32.1438523 17.8664093,33.4130394 18.5105822,34.7956329 C18.8848907,35.5991297 19.0648003,36.7748168 19.5948694,37.4558587 C19.622037,37.3521039 19.6498082,37.2489523 19.6775795,37.1451974" id="Stroke-55" stroke="#555A5E" stroke-width="1.5" stroke-linecap="round" stroke-linejoin="round"></path>
                    <path d="M7.60311144,30.3088394 C7.67797314,30.7986587 8.93734016,31.6178394 9.27301037,32.0467329 C10.2154226,33.2519781 11.4379625,34.5712329 12.1473375,35.9128071 C12.528287,35.82172 12.4262577,35.6051619 12.6429944,35.2945006 C13.5775582,33.95172 14.2664066,32.3634265 15.2184785,30.9953103 C16.6825077,28.8912587 19.4457497,24.5076168 22.4951566,24.6783297" id="Stroke-57" stroke="#555A5E" stroke-width="1.5" stroke-linecap="round" stroke-linejoin="round"></path>
                    <path d="M1.06237207,8.38707065 C0.951286968,8.40758032 0.840201862,8.42748677 0.728513032,8.44799645 C0.131430585,9.92529645 1.15474176,12.0944965 1.5556141,13.4517545 C2.19193856,15.6046674 2.30785346,18.1243416 3.56842793,20.0142481 C4.02605027,19.9611642 4.19569654,19.7331448 4.61166197,19.5437319 C5.42849973,19.1721448 6.39385346,19.1528416 7.26804495,18.9996223 C9.58151303,18.5936513 12.0905875,18.5785706 14.3460981,17.9481997 C14.1734332,17.59109 13.9047763,17.5096545 13.5395237,17.2345835" id="Stroke-59" stroke="#555A5E" stroke-width="1.5" stroke-linecap="round" stroke-linejoin="round"></path>
                    <path d="M0.257608777,10.7999739 C-0.0690055851,9.7769029 1.6123641,9.67978355 2.27887473,9.53259645 C4.4474492,9.05423839 6.65164335,8.62836097 8.77010878,7.95636742 C9.46801303,7.73498355 10.3633348,7.13175774 11.0896141,7.21319323 C11.1270449,8.32855774 11.801404,9.74915452 12.131037,10.7782577 C12.5971114,12.2332384 13.3378801,13.5024255 13.9820529,14.885019 C14.3569652,15.6885158 14.536271,16.8635997 15.0663402,17.5452448 C15.0941114,17.44149 15.1218827,17.3383384 15.149654,17.2345835" id="Stroke-61" stroke="#555A5E" stroke-width="1.5" stroke-linecap="round" stroke-linejoin="round"></path>
                    <path d="M3.0751859,10.3976826 C3.14944388,10.8875019 4.40941463,11.7072858 4.74448112,12.1361794 C5.68689335,13.3414245 6.90943324,14.6606794 7.61880824,16.0022535 C7.99975771,15.9111665 7.89772846,15.6946084 8.11446516,15.3839471 C9.04963271,14.0411665 9.73787739,12.4528729 10.6905529,11.0847568 C12.1545822,8.98070516 14.9178242,4.59706323 17.9666274,4.76777613" id="Stroke-63" stroke="#555A5E" stroke-width="1.5" stroke-linecap="round" stroke-linejoin="round"></path>
                    <path d="M22.3023274,6.50615226 C22.9573673,6.95434903 22.6820694,7.89055548 22.7249338,8.5547071 C22.7997955,9.72737806 23.0104949,11.431491 23.9631705,12.2440361 C26.2772423,11.7427555 26.710112,8.54927806 26.9986918,6.56406194 C27.2401811,4.90760387 27.0977024,3.3187071 27.1333221,1.66466194 C27.118229,3.84351355 26.4849231,8.84546194 29.2880109,9.70143935 C32.0017476,10.5302716 32.4696332,6.11646839 32.3525109,4.29955226 C33.1186359,5.53254581 33.8268035,7.36695548 35.4936838,7.6993329 C38.0595082,8.21026516 37.7341013,4.76705226 38.4416652,3.26381355 C39.847737,3.40014258 40.1399391,5.41129742 40.8788965,6.39576194 C42.2300295,8.19699419 43.796088,7.91227161 45.0995269,6.40239742 C46.5140508,4.76463935 47.7830774,3.02312645 49.6346971,1.84442323 C50.1569178,1.51264903 50.6308407,1.15553935 51.2810508,1.27799419" id="Stroke-65" stroke="#555A5E" stroke-width="1.5" stroke-linecap="round" stroke-linejoin="round"></path>
                    <path d="M28.3395614,28.2222813 C28.3093753,28.3423232 28.2797928,28.4629684 28.2502104,28.5842168 C25.8455801,28.1613555 29.0893859,23.0743523 29.5983247,22.632791 C31.0949551,21.3364587 32.4569551,21.2725168 33.2116093,23.2203329 C34.0948566,25.4999232 33.382463,28.1058587 31.5809524,29.6151297 C30.0607769,28.2735555 32.0651386,23.2619555 33.8744976,22.5863426 C36.1251785,21.7466523 36.7584843,25.3756587 36.8055747,26.9325845 C36.4065136,26.2533523 37.0361971,25.2381232 37.2951944,24.6566135 C38.0510561,22.9591361 39.3973593,20.8472426 41.1723061,20.0636523 C43.0341891,19.2408523 44.5217636,20.0540006 44.9389364,21.989149 C45.5046253,21.8823781 45.9519843,21.53492 46.424096,21.2067652 C48.4163832,19.8223619 50.1225056,18.0054458 52.0858141,16.5595135" id="Stroke-67" stroke="#555A5E" stroke-width="1.5" stroke-linecap="round" stroke-linejoin="round"></path>
                    <path d="M35.9869258,45.5143523 C36.0291864,45.2139458 35.925346,45.0812361 35.6748008,45.11562 C35.4459896,45.7122103 35.5751864,46.4475426 35.5437928,47.0833426 C35.442971,49.0625265 35.5419816,52.7669361 38.1361811,53.0034006 C42.1123035,53.3665426 42.1539604,42.2213426 39.6569604,42.6984942 C39.2826519,43.4368426 38.5865588,45.2543619 39.4196971,45.9136877 C40.2474019,45.5089232 40.8529364,44.87252 41.2344896,44.0044781 C41.5520481,43.2552716 42.0440827,42.6629039 42.7105934,42.2285813 C43.3656332,42.297349 43.916229,42.5905168 44.3617769,43.1098942 C45.1810295,43.8283361 46.1258566,44.0907394 47.1986731,43.8952942 C48.5606731,43.32042 49.8031359,42.5488942 50.9260614,41.5807168 C51.9125455,40.8321135 52.9431013,40.1498652 54.0159178,39.5345748 C55.0506997,39.4012619 55.4503646,40.3857265 56.5135215,40.2867974" id="Stroke-69" stroke="#555A5E" stroke-width="1.5" stroke-linecap="round" stroke-linejoin="round"></path>
                </g>
            </g>
        </g>
    </g>
</svg>