<svg xmlns="http://www.w3.org/2000/svg" id="Lager_1" enable-background="new 0 0 288 33" viewBox="0 0 288 33" x="0px" y="0px" width="288px" height="33px" xmlns:xml="http://www.w3.org/XML/1998/namespace" xml:space="preserve" version="1.1"><g><path fill="#1d1d1b" d="M 109.793 10.632 v -0.552 c 2.033 -1.237 3.515 -3.268 4.532 -6.191 h 0.813 v 5.884 h 2.353 v 0.859 h -2.353 v 9.606 c 0 1.201 0.262 1.787 0.9 1.787 c 0.697 0 1.163 -0.621 1.424 -1.929 l 0.028 -0.271 l 0.842 0.169 c -0.464 2.444 -1.713 3.646 -3.775 3.646 c -1.947 0 -2.875 -1.065 -2.875 -3.403 v -9.606 H 109.793"/>	 <path fill="#1d1d1b" d="M 128.432 13.457 h -0.796 c -0.287 -1.826 -1.751 -3.1 -3.565 -3.1 c -1.337 0 -2.229 0.724 -2.229 1.792 c 0 0.858 0.572 1.597 1.814 1.942 c 2.293 0.654 3.247 0.995 4.012 1.444 c 1.05 0.621 1.655 1.67 1.655 3.119 c 0 2.89 -1.974 4.987 -4.712 4.987 c -1.114 -0.032 -2.164 -0.343 -3.056 -0.927 c -0.318 -0.24 -0.414 -0.31 -0.637 -0.31 c -0.287 0 -0.446 0.31 -0.478 0.894 h -0.828 v -5.024 h 0.828 c 0.223 2.616 1.974 4.476 4.267 4.476 c 1.496 0 2.642 -0.931 2.642 -2.103 c 0 -1.204 -0.541 -1.648 -3.025 -2.373 c -1.018 -0.274 -2.037 -0.653 -2.514 -0.896 c -1.21 -0.585 -2.038 -2.031 -2.038 -3.511 c 0 -2.477 1.814 -4.44 4.075 -4.44 c 0.828 0 1.433 0.172 2.579 0.69 c 0.415 0.173 0.542 0.239 0.733 0.239 c 0.318 0 0.414 -0.206 0.477 -0.929 h 0.796 V 13.457"/>	 <path fill="#1d1d1b" d="M 145.51 23.642 c -3.601 -0.032 -6.419 -3.098 -6.419 -7.09 c 0 -3.991 2.818 -7.124 6.419 -7.124 c 3.659 0 6.447 3.133 6.447 7.124 C 151.957 20.544 149.169 23.642 145.51 23.642 M 147.396 11.22 c -0.436 -0.552 -1.103 -0.863 -1.887 -0.863 c -1.163 0 -2.122 0.76 -2.411 1.964 c -0.204 0.86 -0.291 2.097 -0.291 4.23 c 0 3.339 0.203 4.577 0.842 5.337 c 0.464 0.551 1.133 0.861 1.859 0.861 c 1.22 0 2.149 -0.76 2.438 -1.964 c 0.205 -0.858 0.291 -2.132 0.291 -4.234 C 148.239 13.182 148.036 11.977 147.396 11.22 Z"/>	 <path fill="#1d1d1b" d="M 148.182 3.194 c 1.12 0 1.999 0.895 1.999 1.999 c -0.03 1.105 -0.879 2 -1.999 2 c -1.121 0 -1.999 -0.895 -1.999 -2 C 146.183 4.088 147.061 3.194 148.182 3.194 Z"/>	 <path fill="#1d1d1b" d="M 142.807 3.194 c 1.112 0 2.014 0.895 2.014 1.999 c 0 1.105 -0.902 2 -2.014 2 c -1.081 0 -1.983 -0.895 -1.983 -2 C 140.824 4.088 141.726 3.194 142.807 3.194 Z"/>	 <path fill="#1d1d1b" d="M 166.788 10.632 H 164.9 V 9.773 h 0.871 c 2.148 0 3.05 -0.07 4.444 -0.378 v 2.442 c 1.104 -1.583 2.527 -2.41 4.125 -2.41 c 1.743 0 3.079 0.999 3.572 2.685 c 1.017 -1.821 2.383 -2.685 4.124 -2.685 c 2.586 0 3.572 1.274 3.572 4.613 v 8.399 h 1.917 v 0.859 h -6.884 v -0.859 h 1.51 v -8.399 c 0 -2.821 -0.174 -3.236 -1.363 -3.236 c -1.802 0 -2.876 1.928 -2.876 5.062 v 6.573 h 1.51 v 0.859 h -6.476 v -0.859 h 1.509 v -8.399 c 0 -2.582 -0.261 -3.236 -1.424 -3.236 c -1.829 0 -2.816 1.789 -2.816 5.062 v 6.573 h 1.539 v 0.859 h -6.884 v -0.859 h 1.917 V 10.632"/>	 <path fill="#1d1d1b" d="M 209.679 21.269 c -0.843 1.62 -1.944 2.373 -3.398 2.373 c -2.964 0 -5.256 -3.026 -5.256 -6.987 c 0 -3.955 2.322 -7.227 5.14 -7.227 c 1.454 0 2.44 0.653 3.515 2.376 V 1.237 h -1.887 V 0.378 h 0.9 c 2.148 0 3.079 -0.07 4.443 -0.378 v 22.439 h 1.89 v 0.859 h -5.347 V 21.269 M 209.795 16.623 c 0 -2.582 -0.319 -4.096 -1.16 -5.164 c -0.495 -0.654 -1.076 -0.996 -1.628 -0.996 c -1.51 0 -2.236 1.892 -2.236 5.608 c 0 1.686 0.174 3.544 0.436 4.715 c 0.291 1.17 0.958 1.822 1.859 1.822 c 1.512 0 2.642 -2.338 2.729 -5.642 C 209.795 16.864 209.795 16.761 209.795 16.623 Z"/>	 <path fill="#1d1d1b" d="M 217.681 1.237 h -1.887 V 0.378 h 0.87 c 2.151 0 3.079 -0.07 4.443 -0.378 v 22.439 h 1.917 v 0.859 h -7.261 v -0.859 h 1.917 V 1.237"/>	 <path fill="#1d1d1b" d="M 227.122 2.047 c 1.165 0 2.077 0.932 2.077 2.076 c 0 1.116 -0.912 2.046 -2.077 2.046 c -1.102 0 -2.047 -0.93 -2.047 -2.046 C 225.075 2.979 225.987 2.047 227.122 2.047"/>	 <path fill="#1d1d1b" d="M 225.786 10.632 h -1.887 V 9.773 h 0.87 c 2.149 0 3.08 -0.07 4.443 -0.378 v 13.044 h 1.89 v 0.859 h -7.233 v -0.859 h 1.917 V 10.632 Z"/>	 <path fill="#1d1d1b" d="M 233.922 10.632 h -1.889 V 9.773 h 0.87 c 2.151 0 3.052 -0.07 4.445 -0.378 v 2.512 c 1.074 -1.583 2.645 -2.479 4.357 -2.479 c 2.498 0 3.601 1.345 3.601 4.44 v 8.571 h 1.917 v 0.859 h -6.884 v -0.859 h 1.513 v -8.571 c 0 -2.307 -0.32 -3.063 -1.424 -3.063 c -1.976 0 -3.08 1.789 -3.08 4.991 v 6.644 h 1.54 v 0.859 h -6.886 v -0.859 h 1.919 V 10.632"/>	 <path fill="#1d1d1b" d="M 274.699 10.632 h -1.89 V 9.773 h 0.871 c 2.15 0 3.051 -0.07 4.445 -0.378 v 2.512 c 1.074 -1.583 2.644 -2.479 4.327 -2.479 c 2.525 0 3.63 1.345 3.63 4.44 v 8.571 H 288 v 0.859 h -6.883 v -0.859 h 1.51 v -8.571 c 0 -2.307 -0.32 -3.063 -1.425 -3.063 c -1.972 0 -3.076 1.789 -3.076 4.991 v 6.644 h 1.539 v 0.859 h -6.886 v -0.859 h 1.92 V 10.632"/>	 <path fill="#1d1d1b" d="M 161.261 9.428 c -1.183 0 -2.489 0.977 -3.215 2.769 V 9.395 c -1.364 0.308 -2.323 0.378 -4.56 0.378 h -0.785 v 0.859 h 1.917 v 11.807 h -1.946 v 0.859 h 7.582 v -0.859 h -2.208 V 16.45 c 0 -1.995 0.17 -3.064 0.954 -4.404 c 0.204 -0.319 0.466 -0.737 0.766 -1.03 c 0.229 -0.211 0.438 -0.347 0.565 -0.348 c 0.079 0 0.139 0.009 0.194 0.064 c 0.057 0.057 0.096 0.243 -0.028 0.401 l -0.126 0.158 c -0.19 0.221 -0.355 0.604 -0.355 0.951 c 0 1.01 0.804 1.667 1.846 1.667 c 1.167 0 1.988 -0.853 1.988 -2.02 C 163.85 10.469 162.744 9.428 161.261 9.428 Z"/>	 <path fill="#1d1d1b" d="M 90.545 9.428 c -1.558 0 -2.702 0.653 -3.776 2.376 V 0 c -1.394 0.309 -2.265 0.378 -4.444 0.378 h -0.9 v 0.859 h 1.888 v 21.202 h -1.888 v 0.859 h 5.345 v -2.03 c 0.842 1.62 2.095 2.373 3.652 2.373 c 3.177 0 5.637 -3.026 5.637 -6.987 C 96.058 12.7 93.566 9.428 90.545 9.428 Z M 91.898 20.786 c -0.332 1.17 -1.095 1.822 -2.125 1.822 c -1.727 0 -3.028 -2.338 -3.12 -5.642 v -0.344 c 0 -2.582 0.363 -4.096 1.327 -5.164 c 0.564 -0.654 1.229 -0.996 1.86 -0.996 c 1.727 0 2.556 1.892 2.556 5.608 C 92.396 17.757 92.197 19.615 91.898 20.786 Z"/>	 <path fill="#1d1d1b" d="M 258.14 10.521 c 0.096 0 0.16 0.03 0.258 0.15 c 0.352 0.362 0.674 0.513 1.088 0.513 c 0.674 0 1.188 -0.543 1.188 -1.206 c 0 -0.784 -0.608 -1.356 -1.442 -1.356 c -0.931 0 -1.537 0.541 -2.019 1.744 c -0.065 0.17 -0.109 0.315 -0.142 0.443 c -1.054 -0.958 -2.16 -1.382 -3.556 -1.382 c -2.964 0 -5.171 2.203 -5.171 5.131 c 0 1.583 0.581 2.82 1.8 3.922 l 0.141 0.102 c -1.466 0.633 -2.505 2.232 -2.505 3.925 c 0 1.653 0.782 2.824 2.206 3.304 c -1.424 0.449 -2.15 1.378 -2.15 2.788 c 0 2.306 2.471 3.991 5.839 3.991 c 4.008 0 6.563 -2.375 6.563 -6.092 c 0 -1.377 -0.301 -2.368 -0.9 -3.086 c -0.889 -1.058 -1.949 -1.327 -3.927 -1.327 l -2.028 0.01 h -2.231 c -1.366 0 -1.892 -0.206 -1.892 -0.966 c 0 -0.833 0.708 -1.667 1.725 -2.083 c 0.856 0.419 1.63 0.606 2.531 0.606 c 2.931 0 5.054 -2.171 5.054 -5.165 c 0 -0.896 -0.176 -1.615 -0.523 -2.442 c -0.025 -0.053 -0.064 -0.127 -0.09 -0.195 c -0.211 -0.495 -0.176 -0.754 -0.176 -0.754 C 257.779 10.764 257.915 10.521 258.14 10.521 Z M 257.182 26.086 c 1.044 0 1.692 0.552 1.692 1.755 c 0 2.17 -2.179 3.82 -5.055 3.82 c -2.47 0 -4.096 -1.343 -4.096 -3.338 c 0 -0.859 0.262 -1.513 0.901 -2.237 H 257.182 Z M 255.197 15.832 c 0 2.13 -0.463 2.892 -1.741 2.892 c -1.277 0 -1.743 -0.762 -1.743 -2.892 V 13.25 c 0 -2.101 0.466 -2.894 1.743 -2.894 c 1.278 0 1.741 0.793 1.741 2.894 V 15.832 Z"/>	 <path fill="#1d1d1b" d="M 137.464 0.136 c -1.684 0 -3.398 1.139 -4.415 2.927 c -0.755 1.41 -1.104 3.063 -1.104 5.575 v 1.046 h -1.888 v 0.948 h 1.888 v 11.807 h -1.888 v 0.859 h 7.958 v -0.859 h -2.614 V 10.632 h 2.614 V 9.684 h -2.643 V 4.198 c 0 -2.204 0.465 -3.133 1.569 -3.133 c 0.447 0 0.747 0.159 0.747 0.415 c 0 0.128 -0.037 0.115 -0.254 0.333 c -0.28 0.31 -0.404 0.589 -0.404 0.931 c 0 0.777 0.683 1.398 1.553 1.398 c 0.962 0 1.645 -0.715 1.645 -1.708 C 140.228 1.161 139.064 0.136 137.464 0.136 Z"/>	 <path fill="#1d1d1b" d="M 109.291 15.764 v -0.449 c 0 -3.199 -2.487 -5.852 -5.522 -5.852 c -3.457 0 -6.128 3.082 -6.128 7.089 c 0 2.959 1.515 5.425 3.701 6.524 c 0.797 0.4 1.679 0.632 2.615 0.635 c 2.3 0.007 4.047 -1.306 5.335 -4.096 l -0.705 -0.41 c -1.059 2.273 -2.477 3.462 -4.077 3.508 c -0.043 0.002 -0.088 0.002 -0.135 0.005 c -0.422 0.002 -0.891 -0.04 -1.292 -0.199 c -0.173 -0.069 -0.336 -0.162 -0.484 -0.28 c -0.177 -0.144 -0.337 -0.319 -0.473 -0.525 c -0.41 -0.628 -0.584 -1.552 -0.644 -3.135 c -0.012 -0.298 -0.021 -1.628 -0.021 -2.042 c 0 -0.139 0.001 -0.648 0.002 -0.772 H 109.291 Z M 103.693 10.393 c 1.554 0.024 1.918 0.684 1.918 3.545 v 0.789 h -4.134 c 0.021 -0.575 0.062 -1.322 0.127 -1.597 C 101.748 11.088 102.379 10.372 103.693 10.393 Z M 101.474 14.812 v 0.003 l 0 0 C 101.474 14.814 101.474 14.813 101.474 14.812 Z M 101.47 14.9 v 0.003 l 0 0 C 101.47 14.903 101.47 14.901 101.47 14.9 Z"/>	 <path fill="#1d1d1b" d="M 199.474 15.764 v -0.448 c 0 -3.2 -2.487 -5.853 -5.522 -5.853 c -3.459 0 -6.131 3.081 -6.131 7.09 c 0 2.959 1.517 5.423 3.702 6.523 c 0.797 0.4 1.679 0.632 2.614 0.635 c 2.301 0.007 4.049 -1.306 5.337 -4.094 l -0.707 -0.412 c -1.058 2.273 -2.475 3.462 -4.074 3.51 c -0.044 0 -0.088 0.003 -0.137 0.003 c -0.422 0.002 -0.89 -0.04 -1.292 -0.199 c -0.174 -0.067 -0.336 -0.162 -0.484 -0.28 c -0.178 -0.142 -0.338 -0.317 -0.472 -0.525 c -0.412 -0.628 -0.586 -1.552 -0.646 -3.135 c -0.012 -0.298 -0.021 -1.628 -0.021 -2.041 c 0 -0.139 0 -0.65 0.002 -0.773 H 199.474 Z M 193.877 10.393 c 1.554 0.024 1.917 0.683 1.917 3.545 v 0.789 h -4.135 c 0.021 -0.575 0.063 -1.322 0.127 -1.597 C 191.93 11.088 192.563 10.373 193.877 10.393 Z"/>	 <path fill="#1d1d1b" d="M 272.212 15.764 v -0.448 c 0 -3.2 -2.486 -5.853 -5.521 -5.853 c -3.459 0 -6.129 3.081 -6.129 7.09 c 0 2.959 1.515 5.423 3.7 6.523 c 0.797 0.4 1.681 0.632 2.616 0.635 c 2.299 0.007 4.047 -1.306 5.334 -4.094 l -0.703 -0.412 c -1.061 2.273 -2.478 3.462 -4.077 3.51 c -0.044 0 -0.088 0.003 -0.135 0.003 c -0.424 0.002 -0.892 -0.04 -1.292 -0.199 c -0.174 -0.067 -0.338 -0.162 -0.486 -0.28 c -0.178 -0.142 -0.338 -0.317 -0.472 -0.525 c -0.41 -0.628 -0.586 -1.552 -0.646 -3.135 c -0.012 -0.298 -0.021 -1.628 -0.021 -2.041 c 0 -0.139 0.002 -0.65 0.002 -0.773 H 272.212 Z M 266.616 10.393 c 1.554 0.024 1.917 0.683 1.917 3.545 v 0.789 h -4.135 c 0.021 -0.575 0.063 -1.322 0.127 -1.597 C 264.669 11.088 265.302 10.373 266.616 10.393 Z"/>	 <g><path fill="#006999" d="M 24.799 22.995 l -8.647 -12.417 c -1.598 -2.252 -3.869 -3.882 -6.477 -4.164 c -3.56 -0.336 -6.756 1.265 -8.579 4.324 c -1.569 2.617 -1.428 6.428 0.253 8.937 c 1.513 2.344 3.953 3.515 6.616 3.624 h 16.675 C 24.844 23.299 24.916 23.162 24.799 22.995 Z"/>	 </g>	 <path fill="#006999" d="M 47.388 22.99 c -0.866 -0.308 -2.421 -0.757 -3.916 -1.72 c -0.941 -0.606 -1.86 -1.461 -2.595 -2.521 L 30.225 3.357 c -1.373 -1.832 -3.318 -2.979 -6.574 -2.979 H 10.694 c -0.405 0 -0.404 0.184 -0.067 0.307 c 1.112 0.404 4.913 1.99 7.095 5.125 l 10.176 14.623 c 1.429 1.887 3.447 2.799 5.719 2.866 h 13.701 C 47.724 23.299 47.723 23.111 47.388 22.99 Z"/>	 <path fill="#1d1d1b" d="M 78.982 9.428 c -1.335 0 -2.615 1.102 -3.341 2.894 V 9.395 c -1.364 0.308 -2.323 0.378 -4.559 0.378 h -0.784 v 0.859 h 1.917 v 11.807 h -4.088 L 61.165 0.378 h -1.226 l -6.38 20.019 l -0.248 0.794 c -0.251 0.765 -0.512 1.126 -1.472 1.246 c -0.008 0 -0.232 0.002 -0.279 0.002 h -0.917 v 0.859 h 6.282 v -0.859 h -1.609 c -0.805 0 -1.052 -0.104 -1.052 -0.483 c 0 -0.169 0.062 -0.343 0.247 -0.964 l 1.27 -3.82 h 6.375 l 1.639 5.268 h -2.629 v 0.859 H 77.85 v -0.859 h -2.208 V 16.45 c 0 -1.995 0.233 -3.064 1.019 -4.404 c 0.203 -0.319 0.528 -0.737 0.827 -1.03 c 0.228 -0.211 0.436 -0.347 0.565 -0.348 c 0.079 0 0.139 0.009 0.194 0.064 c 0.057 0.057 0.095 0.243 -0.028 0.401 l -0.127 0.158 c -0.189 0.221 -0.354 0.604 -0.354 0.951 c 0 1.01 0.803 1.667 1.844 1.667 c 1.167 0 1.989 -0.853 1.989 -2.02 C 81.571 10.469 80.465 9.428 78.982 9.428 Z M 56.071 16.082 l 2.834 -8.892 l 2.865 8.892 H 56.071 Z"/> </g> </svg>