<svg xmlns="http://www.w3.org/2000/svg" width="12" height="12" viewBox="0 0 12 12">
    <path fill="#06769F" fill-rule="evenodd" d="M12 9.654a.945.945 0 0 1-.283.688l-1.372 1.373a.934.934 0 0 1-.689.285.938.938 0 0 1-.688-.285L6 8.747l-2.968 2.968a.933.933 0 0 1-.686.285.92.92 0 0 1-.686-.285L.285 10.342A.939.939 0 0 1 0 9.654c0-.268.096-.495.285-.686L3.253 6 .285 3.03A.934.934 0 0 1 0 2.344c0-.27.096-.5.285-.686L1.66.283A.934.934 0 0 1 2.346 0c.268 0 .495.096.686.283L6 3.253 8.968.283A.952.952 0 0 1 9.656 0c.27 0 .498.096.689.283l1.372 1.375a.937.937 0 0 1 .283.686.94.94 0 0 1-.283.686L8.747 6l2.97 2.968c.187.19.283.418.283.686z"/>
</svg>
