<svg xmlns="http://www.w3.org/2000/svg" width="16" height="14" viewBox="0 0 16 14">
    <g fill="none" fill-rule="evenodd">
        <g transform="translate(-15 -522)">
            <rect width="262" height="562.273" fill="#FFF" rx="5"/>
            <path fill="#0677A0" fill-rule="nonzero" d="M30.028 528.348a1.75 1.75 0 0 0-1.267-.515h-.598V525.5c0-.243-.063-.51-.187-.802a2.115 2.115 0 0 0-.449-.693l-1.421-1.385a2.186 2.186 0 0 0-.71-.438 2.206 2.206 0 0 0-.823-.182H18.29a.877.877 0 0 0-.636.255.833.833 0 0 0-.262.62v4.958h-.598a1.75 1.75 0 0 0-1.267.515 1.664 1.664 0 0 0-.528 1.235v3.792c0 .08.03.147.089.205.059.058.13.087.21.087h2.094v1.458c0 .243.087.45.262.62.174.17.386.255.636.255h8.974c.25 0 .461-.085.636-.255a.834.834 0 0 0 .262-.62v-1.458h2.094c.08 0 .15-.03.21-.087a.277.277 0 0 0 .089-.205v-3.792c0-.48-.176-.891-.528-1.235zm-3.062 6.485H18.59V532.5h8.376v2.333zm0-5.833H18.59v-5.833h5.983v1.458c0 .243.087.45.262.62.174.17.386.255.635.255h1.496v3.5zm2.216.993a.583.583 0 0 1-.421.174.583.583 0 0 1-.42-.174.554.554 0 0 1-.178-.41c0-.158.059-.294.177-.41a.582.582 0 0 1 .42-.173c.163 0 .303.058.422.173a.554.554 0 0 1 .177.41c0 .158-.059.295-.177.41z"/>
        </g>
    </g>
</svg>
