<svg xmlns="http://www.w3.org/2000/svg" width="15" height="14" viewBox="0 0 15 14">
    <g fill="none" fill-rule="evenodd">
        <g transform="translate(-15 -488)">
            <rect width="262" height="562.273" fill="#FFF" rx="5"/>
            <g fill="#05769F" fill-rule="nonzero">
                <path d="M29.185 491.666l-3.311-3.485a.518.518 0 0 0-.604-.127.544.544 0 0 0-.336.535v1.743h-1.38c-.61 0-1.174.033-1.694.1-.52.066-.979.158-1.376.276a5.435 5.435 0 0 0-1.073.44c-.32.176-.59.362-.815.559-.224.196-.421.42-.59.671-.17.251-.306.498-.406.74-.1.242-.181.508-.242.798-.06.29-.1.563-.12.817-.02.254-.03.53-.03.826 0 .339.05.708.15 1.107.101.4.212.744.332 1.034.121.29.263.592.427.903.164.312.278.519.34.622.064.102.125.196.182.281a.266.266 0 0 0 .224.118.446.446 0 0 0 .104-.018c.132-.067.19-.17.172-.309-.259-2.032-.046-3.463.638-4.292.661-.792 1.92-1.189 3.777-1.189h1.38v1.743c0 .254.112.432.336.535.075.03.147.045.216.045a.501.501 0 0 0 .388-.172l3.311-3.485a.573.573 0 0 0 .164-.408.573.573 0 0 0-.164-.408z"/>
                <path d="M26.96 496.72c-.11-.048-.21-.024-.302.073-.149.145-.304.257-.465.336a.288.288 0 0 0-.156.263v1.942c0 .4-.134.74-.405 1.025-.27.285-.595.427-.974.427h-7.175c-.38 0-.704-.142-.974-.427a1.436 1.436 0 0 1-.405-1.025v-7.55c0-.4.135-.741.405-1.026.27-.284.595-.426.974-.426h.966c.035 0 .08-.012.138-.037a5.623 5.623 0 0 1 1.147-.544c.15-.03.224-.127.224-.29a.286.286 0 0 0-.082-.205.26.26 0 0 0-.194-.086h-2.199c-.684 0-1.269.256-1.754.767a2.585 2.585 0 0 0-.729 1.847v7.55c0 .72.243 1.335.729 1.847.485.51 1.07.766 1.755.766h7.174c.684 0 1.269-.255 1.755-.766a2.585 2.585 0 0 0 .729-1.847v-2.35c0-.122-.06-.21-.182-.264z"/>
            </g>
        </g>
    </g>
</svg>
